<?xml version="1.0" encoding="utf-8"?>
<!-- Generator: Adobe Illustrator 27.2.0, SVG Export Plug-In . SVG Version: 6.00 Build 0)  -->
<svg version="1.1" id="lay" xmlns="http://www.w3.org/2000/svg" xmlns:xlink="http://www.w3.org/1999/xlink" x="0px" y="0px"
	 viewBox="0 0 100 100" style="enable-background:new 0 0 100 100;" xml:space="preserve">
<style type="text/css">
	.st0{fill:none;stroke:#000000;stroke-width:1.0232;stroke-miterlimit:10;}
	.st1{fill:#FFFFFF;}
	.st2{clip-path:url(#SVGID_00000127747237179842089020000016584269662287945098_);}
	.st3{fill:#E94709;}
</style>
<path class="st3" d="M53.1,5c0.4,0.1,0.9,0,1.3-0.1L54.6,4l-0.3,0c-0.4,0.5-0.7,0.7-1,0.7c-0.5,0-0.9-0.6-0.8-1.6
	c0.1-0.8,0.4-1.2,0.9-1.1c0.3,0,0.6,0.2,1,0.8l0.2,0l-0.1-0.9c-0.3-0.2-0.6-0.3-1-0.3c0,0,0,0,0,0c-1.1-0.1-2,0.6-2.2,1.7h0
	c0,0,0,0.1,0,0.1C51.4,4.3,52.2,5,53.1,5z"/>
<path class="st3" d="M52.9,6.4c1.8,0.2,3.4-1.1,3.6-2.9c0.1-1.7-1.2-3.2-2.9-3.3C51.8,0,50.2,1.3,50,3.1C49.9,4.8,51.2,6.2,52.9,6.4
	z M53.4,0.8c1.4,0.1,2.5,1.3,2.4,2.7c-0.1,1.4-1.3,2.4-2.7,2.3c-1.4-0.1-2.4-1.3-2.3-2.6C50.8,1.8,52,0.8,53.4,0.8z"/>
<path class="st3" d="M64.2,8.2c-0.6-0.5-0.7-0.6-0.5-1l1.1-3.7c0.1-0.4,0.3-0.5,1-0.5l0.1-0.3l-3-0.9l-0.1,0.3
	c0.6,0.5,0.7,0.6,0.5,1l-1.1,3.7c-0.1,0.4-0.3,0.5-1,0.5L61,7.7l3,0.9L64.2,8.2z"/>
<path class="st3" d="M70.8,11.2l-0.2-0.4c0.3-0.5,0.5-0.9,0.8-1.4l0-0.1c0.6-0.9,1.2-0.9,1.5-0.7c0.4,0.2,0.5,0.6,0.2,1
	c-0.5,0.8-0.7,1.3-1.2,2l-0.5,0l-0.1,0.3l2.1,1.1l0.1-0.3l-0.3-0.5c0.4-0.7,0.7-1.3,1.2-2.3c0.1-0.1,0.1-0.2,0.1-0.3
	c0.3-0.7-0.1-1.5-0.8-1.8c-0.7-0.3-1.4-0.2-2,0.3c0.2-0.3,0.3-0.7,0.4-1.1l-1.7-0.4l-0.1,0.2c0.4,0.5,0.4,0.5,0.1,0.9l-0.4,0.7
	c-0.3,0.5-0.5,1-0.9,1.5l-0.6,0l-0.2,0.3l2.1,1.2L70.8,11.2z"/>
<path class="st3" d="M82.3,14c-0.1-0.1-0.1-0.1-0.2-0.2c-1-0.8-2.5-0.7-3.4,0.3c-0.1,0.1-0.1,0.1-0.2,0.2c-0.7,0.8-0.6,2.1,0.2,2.8
	c0.6,0.5,1.3,0.7,2.1,0.5l0-0.3c-0.4-0.1-0.7-0.2-1-0.5c-0.6-0.5-0.6-1.3,0.2-2.1c0.6-0.7,1.3-0.8,1.6-0.5c0.3,0.3,0.4,0.8,0.1,1.5
	l0.2,0.2l1-0.7C83,14.8,82.7,14.3,82.3,14z"/>
<path class="st3" d="M86.5,24l-0.3,0.2c-0.4,0.3-0.5,0.6-0.2,1c0.3,0.4,0.8,0.6,1.2,0.7l0.2-0.1c-0.1-0.2-0.2-0.3-0.3-0.5l1.2-0.9
	c0.8-0.6,1.5-1,1.9-1.3l-0.2-0.3l-1.3-1l-0.2,0.2c0.1,0.5,0.1,0.6-0.3,0.8L87.9,23c-1.2,0.9-1.8,0.6-2,0.3c-0.3-0.4-0.2-0.7,0.3-1
	c0.9-0.7,1.5-1.1,2.4-1.7l-0.2-0.2l-1.4-1l-0.2,0.2c0.1,0.5,0.1,0.6-0.3,0.8c-0.4,0.3-0.8,0.6-1.3,1h0c-0.1,0-0.1,0.1-0.2,0.2
	c-0.6,0.5-0.7,1.4-0.1,2C85.2,24,85.9,24.2,86.5,24z"/>
<path class="st3" d="M89.5,30.9l0.4,0.2c0,0.5,0,0.9,0.2,1.3c0,0.1,0.1,0.2,0.2,0.4c0.6,1.2,2.2,1.7,3.4,1.1c0,0,0.1,0,0.1,0
	c0.9-0.4,1.4-1.5,0.9-2.4c-0.2-0.5-0.5-0.8-1-1l1.2-0.5c0.8-0.3,1.1-0.5,1.6-0.6l-1.5-1.7l-0.2,0.1c0,0.7-0.1,0.8-0.7,1
	c-0.7,0.3-1.5,0.7-2.2,1v0c-0.9,0.4-1.7,0.7-2.7,1L89.5,30.9z M92,31c1-0.4,1.6-0.3,1.8,0.2c0.2,0.5-0.3,1.2-1.2,1.6v0
	c-1,0.4-1.6,0.3-1.8-0.2C90.6,32,91,31.4,92,31z"/>
<path class="st3" d="M95.7,40c0.9,0.1,1.3,0.4,1.4,0.7c0.1,0.4-0.1,0.6-0.8,0.8l-0.5,0.1c-0.9-1.6-1.5-2.5-2.3-2.3l0,0
	c-0.6,0.1-0.9,0.8-0.7,1.5c0.2,0.6,0.7,1,1.3,1.2l-0.2,0c-0.6,0.1-0.8,0.4-0.7,0.9c0.1,0.5,0.4,0.8,0.8,1.1l0.2,0
	c0-0.2-0.1-0.4-0.1-0.6c0.4-0.1,0.7-0.2,1.1-0.2c0.4-0.1,0.9-0.1,1.4-0.2c0.9-0.2,1.3-0.7,1.1-2c-0.2-1-0.7-1.9-1.2-1.8
	C96,39,95.7,39.3,95.7,40z M93.8,41.1C93.8,41,93.8,41,93.8,41.1c-0.1-0.3,0.1-0.5,0.4-0.6c0.4-0.1,0.7,0.1,0.9,1.2
	C94.4,41.8,93.9,41.5,93.8,41.1z"/>
<polygon class="st3" points="95.4,49.2 95.4,49.2 95.4,49.2 "/>
<path class="st3" d="M99.4,50.3c-0.5-0.4-0.9-0.9-1.2-1.4l-0.1-0.3l-0.3,0l0,0.2c-0.1,0.4-0.1,0.4-0.7,0.4l-1.8,0
	c-1.2,0-1.7,0.5-1.7,1.4c0,0.6,0.3,1.1,0.8,1.5l0.2-0.1c-0.1-0.2-0.1-0.5-0.2-0.7c0-0.5,0.2-0.7,1-0.7l2.2,0l0,1.4l0.6,0.1l0-1.5
	l1.1,0L99.4,50.3z"/>
<path class="st3" d="M99.5,58.3L99.5,58.3c-0.4,0.2-0.8,0.4-1.1,0.7l0,0.1l0.7,1l0.1,0c0.3-0.3,0.7-0.5,1-0.7l0-0.1L99.5,58.3z"/>
<path class="st3" d="M97,57.5c-0.3,0.5-0.4,0.5-0.9,0.4l-0.8-0.2c-0.6-0.1-1.1-0.2-1.7-0.4l-0.2-0.5l-0.3-0.1l-0.5,2.3l0.3,0.1
	l0.4-0.4c0.6,0.1,1,0.2,1.6,0.3l2.5,0.5l-0.2-2L97,57.5z"/>
<polygon class="st3" points="99.4,58.3 99.4,58.3 99.4,58.3 "/>
<path class="st3" d="M93.4,64.6L93.4,64.6c-0.1,0-0.1,0-0.2-0.1c-1.1-0.4-2.3,0.2-2.7,1.3c0,0.1-0.1,0.1-0.1,0.2
	c-0.5,1.3,0.1,2.7,1.5,3.2c0.1,0,0.1,0.1,0.2,0.1c1.1,0.4,2.3-0.2,2.6-1.3c0,0,0-0.1,0.1-0.1C95.3,66.6,94.7,65.2,93.4,64.6z
	 M94.3,67.6c-0.2,0.4-0.9,0.7-2.1,0.2v0c-1-0.4-1.4-0.9-1.2-1.4c0.2-0.4,0.9-0.7,2.1-0.2C94.1,66.6,94.5,67.1,94.3,67.6z"/>
<path class="st3" d="M89.6,74.7l-0.7-0.5c-0.5-0.4-0.9-0.6-1.4-1l0.1-0.6l-0.3-0.2l-1.4,2l0.2,0.2l0.5-0.2c0.5,0.3,0.9,0.6,1.3,0.9
	l0.1,0.1c0.8,0.6,0.8,1.3,0.6,1.6c-0.3,0.4-0.7,0.4-1.1,0.1c-0.8-0.5-1.3-0.9-1.9-1.4l0-0.5l-0.3-0.2L84,77l0.2,0.2l0.5-0.3
	c0.7,0.4,1.3,0.9,2.1,1.5c0.1,0.1,0.2,0.1,0.2,0.2c0.7,0.4,1.5,0.1,1.9-0.6c0.4-0.6,0.4-1.4-0.1-2c0.3,0.2,0.7,0.4,1.1,0.5l0.6-1.7
	l-0.2-0.2C90,75,89.9,75,89.6,74.7z"/>
<path class="st3" d="M77.5,89.6l-2.1-3.2c-0.2-0.3-0.2-0.5,0.3-1.1l-0.2-0.3l-2.8,1.7l0.2,0.3c0.8-0.2,1-0.1,1.3,0.3l0.8,1.2
	c-0.2,0.2-0.5,0.3-0.7,0.5c-0.4,0.2-0.5,0.1-1.2-0.1L72.8,89l1,1.6l0.3-0.2c0.2-0.6,0.1-0.7,0.4-1c0.2-0.2,0.5-0.4,0.8-0.5l1.2,1.9
	l-0.7,0.5c-0.5,0.3-0.8,0.3-1.8-0.1l-0.3,0.2l0.9,1.4l4.2-2.7l-0.2-0.3C77.9,89.9,77.7,89.9,77.5,89.6z"/>
<path class="st3" d="M68.7,95.7c-0.4-0.2-0.7-0.4-1.1-0.5l-0.1,0L67,96.3l0,0.1c0.4,0.1,0.8,0.3,1.1,0.5l0.1,0L68.7,95.7L68.7,95.7
	L68.7,95.7z"/>
<path class="st3" d="M68.2,93.3c-0.6,0-0.6-0.1-0.8-0.5L67.1,92c-0.2-0.6-0.4-1-0.6-1.6l0.3-0.4l-0.1-0.3l-2.3,0.9l0.1,0.3l0.5,0.1
	c0.2,0.5,0.4,0.9,0.6,1.5l0.9,2.4l1.6-1.2L68.2,93.3z"/>
<path class="st3" d="M60.1,94C60.1,94,60.1,94,60.1,94c-0.2-1.2-1.4-1.9-2.5-1.7c-0.8,0.1-1.6,0.7-1.8,1.5l0.2,0.1
	c0.3-0.3,0.7-0.5,1.1-0.6c0.7-0.1,1.4,0.4,1.6,1.4l0,0.1l-2.9,0.5c0,0.1,0,0.2,0.1,0.4c0,0,0,0.1,0,0.1c0.3,0.9,1.2,1.4,2.1,1.1
	c0.1,0,0.1,0,0.2,0C59.5,96.6,60.4,95.3,60.1,94L60.1,94z M58,96.4C58,96.4,58,96.4,58,96.4c-0.4,0.1-0.7-0.2-0.7-0.5
	c0-0.3,0-0.3,0.3-0.4l1.2-0.2C58.7,96,58.4,96.3,58,96.4z"/>
<path class="st3" d="M49.7,98.3l0-2.7c0-0.6,0-1.2,0.1-1.9l0.5-0.3l0-0.3l-2.4,0l0,0.3l0.5,0.3c0,0.6,0,1.3,0,2l0,2.8
	c0,0.7,0,1.2-0.1,1.7l2.2-0.6v-0.3C49.7,99,49.7,98.9,49.7,98.3z"/>
<path class="st3" d="M41,92.2c-0.6-0.1-1.3,0.1-1.6,0.6l0.1-0.2c0.2-0.5,0-0.8-0.5-0.9c-0.5-0.1-1,0-1.4,0.3l-0.1,0.2
	c0.2,0,0.4,0.1,0.6,0.2c-0.1,0.6-0.2,1.1-0.4,2c-0.2,0.8-0.4,1.6-0.6,2.5c-0.2,0.8-0.3,1.1-0.4,1.7l2.2-0.2l0.1-0.2
	c-0.6-0.4-0.6-0.5-0.5-1.1l0.2-0.8c0.2,0.1,0.4,0.2,0.6,0.3c0.1,0,0.2,0,0.3,0.1c1.3,0.2,2.6-0.7,2.8-2c0,0,0-0.1,0-0.1
	C42.8,93.5,42.1,92.4,41,92.2z M40.9,94.8c-0.2,1-0.7,1.4-1.2,1.3c-0.5-0.1-0.8-0.8-0.6-2c0.2-0.8,0.7-1.3,1.2-1.2
	C40.9,93,41.1,93.7,40.9,94.8z"/>
<path class="st3" d="M24.1,85.6c0.4,0.6,0.5,0.8,0.2,1.1l-2.1,3.2c-0.2,0.3-0.4,0.4-1.1,0.2l-0.2,0.3l2.7,1.7l0.2-0.3
	c-0.4-0.6-0.5-0.8-0.2-1.1l2.1-3.2c0.2-0.3,0.4-0.4,1.1-0.2l0.2-0.3l-2.7-1.7L24.1,85.6z"/>
<path class="st3" d="M18.5,80.9l0.1,0.5c-0.4,0.4-0.7,0.7-1.1,1.2l-0.1,0.1c-0.8,0.7-1.4,0.6-1.7,0.3c-0.4-0.4-0.3-0.7,0.1-1.1
	c0.7-0.7,1.1-1.1,1.7-1.6l0.5,0.1l0.2-0.2l-1.7-1.7l-0.2,0.2l0.2,0.5c-0.6,0.6-1.1,1.1-1.8,1.8c-0.1,0.1-0.1,0.1-0.2,0.2
	c-0.5,0.6-0.3,1.5,0.3,1.9c0.5,0.5,1.3,0.6,2,0.3c-0.3,0.3-0.5,0.6-0.7,1l1.6,0.9l0.2-0.2c-0.2-0.5-0.2-0.6,0.1-0.9l0.6-0.6
	c0.4-0.4,0.8-0.8,1.3-1.2l0.6,0.2l0.2-0.2l-1.7-1.7L18.5,80.9z"/>
<path class="st3" d="M12.9,73.7c-0.4-0.5-1-0.7-1.6-0.6l0.2-0.1c0.5-0.3,0.6-0.6,0.3-1c-0.3-0.4-0.7-0.6-1.2-0.7l-0.2,0.1
	c0.1,0.2,0.2,0.3,0.3,0.5c-0.3,0.2-0.6,0.4-0.9,0.6c-0.4,0.2-0.8,0.4-1.2,0.7c-0.8,0.5-1,1.1-0.2,2.3c0.6,0.9,1.4,1.5,1.8,1.3
	c0.3-0.2,0.4-0.6,0.2-1.3c-0.9,0.2-1.3,0.1-1.5-0.1c-0.2-0.3-0.1-0.6,0.4-1L9.8,74c1.4,1.2,2.3,1.8,3,1.3l0,0c0,0,0,0,0,0
	C13.3,75,13.3,74.2,12.9,73.7z M11.7,74.5c-0.3,0.2-0.7,0.2-1.3-0.8c0.7-0.4,1.2-0.3,1.4,0.1c0,0,0,0,0,0
	C11.9,74,11.9,74.3,11.7,74.5z"/>
<path class="st3" d="M8.3,65c-0.2-0.6-0.8-1-1.4-1l0.2-0.1c0.5-0.2,0.7-0.4,0.5-0.8c-0.2-0.5-0.5-0.8-1-1l-0.2,0.1
	c0.1,0.2,0.1,0.4,0.1,0.6c-0.5,0.2-1.1,0.4-1.9,0.7C3.8,63.7,3,64,2.2,64.3c-0.8,0.3-1.1,0.4-1.7,0.5l1.4,1.8l0.2-0.1
	c0.1-0.7,0.1-0.8,0.7-1l0.7-0.3c0,0.2,0,0.5,0.1,0.7c0,0.1,0.1,0.2,0.1,0.3c0.5,1.2,1.9,1.8,3.2,1.3c0,0,0.1,0,0.1,0
	C8.1,67.1,8.7,66,8.3,65z M6,66.3c-1,0.4-1.6,0.2-1.8-0.3c-0.2-0.5,0.3-1.1,1.4-1.5v0c0.8-0.3,1.5-0.1,1.7,0.3
	C7.5,65.3,7,65.9,6,66.3z"/>
<path class="st3" d="M2.5,55.2L3,55.1c0.8,1.7,1.3,2.6,2.1,2.5l0,0c0.6-0.1,0.9-0.7,0.8-1.5c-0.1-0.6-0.6-1.1-1.2-1.2l0.2,0
	c0.6-0.1,0.8-0.3,0.7-0.8c-0.1-0.5-0.3-0.9-0.7-1.1l-0.2,0c0,0.2,0,0.4,0,0.6c-0.4,0.1-0.7,0.2-1.1,0.2c-0.4,0.1-0.9,0.1-1.4,0.1
	c-0.9,0.1-1.4,0.6-1.2,1.9c0.1,1,0.6,2,1.1,1.9c0.4,0,0.7-0.4,0.7-1c-0.9-0.2-1.3-0.5-1.3-0.8C1.6,55.6,1.8,55.3,2.5,55.2z
	 M4.9,55.7C4.9,55.8,4.9,55.8,4.9,55.7c0,0.3-0.1,0.5-0.4,0.6c-0.4,0-0.7-0.2-0.9-1.2C4.4,55,4.9,55.3,4.9,55.7z"/>
<path class="st3" d="M1,44.5c0,0.7,0.4,1.4,1.1,1.7c-0.4,0-0.8,0-1.2,0.1l0.3,1.7l0.3,0c0.3-0.5,0.3-0.5,0.8-0.5L3,47.6
	c0.6,0.1,1.1,0.1,1.7,0.2L5,48.3l0.3,0l0.2-2.4l-0.3,0l-0.3,0.4c-0.6,0-1-0.1-1.6-0.1H3.2c-1-0.1-1.4-0.7-1.3-1.1
	c0-0.5,0.4-0.7,0.9-0.6c1,0.1,1.5,0.1,2.3,0.2l0.2,0.4l0.3,0l0.2-2.4l-0.3,0l-0.3,0.5c-0.8,0-1.5-0.1-2.6-0.2c-0.1,0-0.2,0-0.3,0
	C1.5,43.1,0.9,43.7,1,44.5z"/>
<path class="st3" d="M4.1,36.8l0.8,0.2c0.6,0.2,1.1,0.3,1.7,0.5l0.1,0.5l0.3,0.1l0.7-2.3l-0.3-0.1l-0.4,0.4c-0.6-0.1-1-0.3-1.6-0.4
	L2.9,35v2l0.3,0.1C3.5,36.7,3.6,36.7,4.1,36.8z"/>
<path class="st3" d="M0.9,36.1L0.9,36.1c0.4-0.2,0.8-0.4,1.1-0.6l0-0.1l-0.6-1.1l-0.1,0c-0.4,0.2-0.7,0.4-1.1,0.6l0,0.1L0.9,36.1
	L0.9,36.1z"/>
<path class="st3" d="M14.3,23.6c0.8-0.9,0.7-2.3-0.3-3c-1.7-1.3-3.4,1.4-4.3,0.7c-0.4-0.3-0.3-0.7,0-1.1c0.4-0.5,1-0.6,2-0.4
	l0.2-0.2l-1.3-1.1c-0.5,0.3-1,0.7-1.3,1.2c0,0-0.1,0.1-0.1,0.1c-0.7,0.9-0.6,2.2,0.3,2.9c1.6,1.2,3.3-1.3,4.3-0.6
	c0.4,0.3,0.3,0.7,0,1.1c-0.4,0.5-1,0.8-2.3,0.4l-0.2,0.3l1.4,1.2c0.6-0.3,1.2-0.7,1.6-1.3C14.3,23.7,14.3,23.7,14.3,23.6z"/>
<path class="st3" d="M21.5,14.7l-0.3,0c-0.1,0.4-0.3,0.8-0.7,1.1c0,0,0,0-0.1,0c-0.7,0.4-1.6,0.2-2-0.4c0,0,0,0-0.1-0.1l2.2-1.9
	c-0.1-0.1-0.2-0.2-0.3-0.3c0,0-0.1-0.1-0.1-0.1c-0.7-0.6-1.7-0.6-2.4,0.1c-0.1,0-0.1,0.1-0.2,0.1c-1,0.9-1,2.5-0.1,3.4h0
	c0,0,0,0,0,0c0.8,0.9,2.2,0.9,3,0.2C21.4,16.4,21.7,15.5,21.5,14.7z M18.1,14.9c-0.3-0.6-0.2-1,0.1-1.3c0,0,0,0,0.1,0
	c0.3-0.2,0.6-0.1,0.8,0.1c0.2,0.2,0.2,0.3,0,0.4L18.1,14.9L18.1,14.9z"/>
<path class="st3" d="M25.4,10.8C25.4,10.8,25.4,10.9,25.4,10.8c0.6,1.1,1.9,1.4,3,0.8c0.8-0.4,1.3-1.1,1.2-2l-0.3-0.1
	c-0.2,0.4-0.5,0.7-0.9,0.9c0,0-0.1,0-0.1,0c-0.8,0.3-1.6-0.1-1.9-0.9l0-0.1L29,8.3c0-0.1-0.1-0.2-0.2-0.3c0,0-0.1-0.1-0.1-0.1
	c-0.5-0.7-1.6-0.9-2.3-0.4c-0.1,0-0.1,0.1-0.2,0.1C25,8.2,24.7,9.7,25.4,10.8L25.4,10.8z M26.5,7.9C26.5,7.9,26.6,7.9,26.5,7.9
	c0.4-0.2,0.7-0.1,0.9,0.2c0.1,0.2,0.1,0.3-0.1,0.4l-1,0.6C26,8.5,26.2,8.1,26.5,7.9z"/>
<path class="st3" d="M35.9,6.5c0.7,0.1,0.9,0.3,1,0.5c0.1,0.3-0.1,0.5-0.5,0.6c-0.4,0.1-0.8,0-1.4-0.6l-0.4,0.1l0.1,1.4v0
	c0.5,0,1.1-0.1,1.6-0.2c1-0.3,1.8-1.1,1.5-2c-0.2-0.7-0.6-0.9-1.7-1.1c-0.9-0.1-1.2-0.2-1.3-0.4c0,0,0,0,0,0
	c-0.1-0.3,0.1-0.5,0.4-0.6c0.5-0.1,1,0.1,1.3,0.6L37,4.7l0-1.2c-0.5-0.1-1,0-1.5,0.2c-0.9,0.3-1.7,1-1.4,1.8
	C34.3,6.4,35.2,6.4,35.9,6.5z"/>
</svg>
