<?xml version="1.0" encoding="utf-8"?>
<!-- Generator: Adobe Illustrator 27.2.0, SVG Export Plug-In . SVG Version: 6.00 Build 0)  -->
<svg version="1.1" id="lay" xmlns="http://www.w3.org/2000/svg" xmlns:xlink="http://www.w3.org/1999/xlink" x="0px" y="0px"
	 viewBox="0 0 100 100" style="enable-background:new 0 0 100 100;" xml:space="preserve">
<style type="text/css">
	.st0{fill:none;stroke:#000000;stroke-width:1.0232;stroke-miterlimit:10;}
	.st1{fill:#FFFFFF;}
	.st2{clip-path:url(#SVGID_00000032607280388921475490000012257121257812843187_);}
	.st3{fill:#E94709;}
</style>
<path class="st3" d="M29.9,43.7c-0.1,0-0.2,0-0.3,0v0.5c0.3,0,0.6,0.1,0.8,0.1c1,0,2.9-0.6,2.9-2.1c0-1.3-1.1-2.1-3.5-2.1h-3.4v0.4
	c0.9,0.3,1,0.5,1,1v4.6c0,0.4-0.1,0.6-1,1v0.4h3.8v-0.4c-0.8-0.3-1-0.5-1-1v-5.3h0.3c0.1,0,0.2,0,0.2,0c0.9,0.1,1.6,0.8,1.5,1.7
	c0,0.1,0,0.1,0,0.2C31.2,43.2,30.6,43.7,29.9,43.7z"/>
<path class="st3" d="M37.5,41.8l-2,0.5l0,0.3c0.7,0.2,0.7,0.3,0.7,0.9v1c0,0.8,0,1.3,0,2.1l-0.6,0.3v0.4h3v-0.4l-0.6-0.3
	c0-0.9,0-1.5,0-2.1c0-1.2,0.5-1.3,0.8-1.3c0.4,0,0.7,0.1,1,0.3c0.2-0.3,0.3-0.6,0.4-1c0-0.5-0.2-0.9-0.7-0.9c-0.6,0-1.2,0.4-1.6,1.5
	C37.7,42.7,37.6,42.3,37.5,41.8z"/>
<path class="st3" d="M43.6,40.8h0.1l1.1-1v-0.1c-0.4-0.3-0.7-0.7-1.1-1.1h-0.1l-1.1,1.1v0.1C42.9,40.1,43.2,40.5,43.6,40.8z"/>
<path class="st3" d="M42.8,43.6v1c0,0.7,0,1.3,0,2.1l-0.6,0.3v0.4h2.9v-0.4l-0.6-0.3c0-0.7,0-1.2,0-1.9v-3l-2.4,0.7v0.3
	C42.8,43,42.8,43,42.8,43.6z"/>
<path class="st3" d="M53.3,42h-2v0.4c0.6,0.2,0.7,0.5,0.5,1l-1,2.1l-0.9-2.2c-0.2-0.5-0.1-0.7,0.4-0.9V42h-3.1v0.4
	c0.3,0.1,0.6,0.4,0.7,0.8h0c0.7,1.4,1.3,2.9,2,4.3h0.6c0.6-1.5,1.3-2.7,1.9-3.9c0.2-0.4,0.5-0.8,0.9-1.2V42z"/>
<path class="st3" d="M55.4,42.8c0,0.5,0.4,0.8,1.2,1c0.4-1,0.7-1.4,1.1-1.4c0.4,0,0.7,0.3,0.7,1.1v0.6c-2.2,0.7-3.3,1.2-3.3,2.1l0,0
	c0,0.7,0.7,1.2,1.6,1.2c0.7-0.1,1.4-0.5,1.7-1.2v0.2c0,0.7,0.3,1,0.9,1c0.6,0,1.1-0.3,1.5-0.7v-0.3c-0.2,0-0.5,0-0.7-0.1
	c-0.1-0.4-0.1-0.9-0.1-1.3c0-0.5,0-1,0-1.6c0-1.1-0.5-1.7-2.2-1.7C56.7,41.8,55.4,42.2,55.4,42.8z M57.4,46.2L57.4,46.2
	C57.4,46.3,57.4,46.3,57.4,46.2c-0.4,0-0.6-0.2-0.6-0.5c0-0.5,0.3-0.8,1.6-0.8C58.4,45.8,57.9,46.2,57.4,46.2z"/>
<path class="st3" d="M67.6,46.2L67.4,46c-0.4,0.2-0.8,0.3-1.2,0.3c-0.9,0-1.5-0.7-1.5-2c0-1.1,0.4-1.7,1.1-1.7c0.6,0,1,0.5,1.3,1.3
	h0.4l0.4-1.4c-0.5-0.4-1.1-0.6-1.8-0.6c-0.1,0-0.2,0-0.3,0c-1.6,0-2.9,1.3-2.8,2.9l0,0c0,0.1,0,0.2,0,0.3c0,1.3,1.1,2.4,2.5,2.4
	C66.2,47.4,67.1,47,67.6,46.2z"/>
<path class="st3" d="M75,42.3V42h-2v0.4c0.5,0.1,0.6,0.3,0.5,0.8l-0.8,2.1l-1-2.2c-0.1-0.3,0-0.5,0.4-0.7V42h-2.7v0.3
	c0.3,0.2,0.6,0.5,0.7,0.9c0.6,1.3,1.2,2.7,1.7,4l-0.2,0.5c-0.3,0.2-0.6,0.3-0.9,0.3c-0.3,0-0.6-0.1-0.9-0.2
	c-0.1,0.2-0.2,0.4-0.2,0.7h0c0,0,0,0.1,0,0.1c0,0.5,0.4,0.9,0.9,0.8c0.8,0,1.2-0.4,1.9-1.8c0.7-1.6,1.3-3.1,1.9-4.4
	C74.4,42.8,74.7,42.5,75,42.3z"/>
<path class="st3" d="M34.2,58.2c-0.1,0-0.2,0-0.3,0v0.5c0.3,0,0.6,0.1,0.8,0.1c1,0,2.9-0.6,2.9-2.1c0-1.3-1.1-2.1-3.5-2.1h-3.4v0.4
	c0.9,0.3,1,0.5,1,1v4.6c0,0.4-0.1,0.6-1,1v0.4h3.8v-0.4c-0.8-0.3-1-0.5-1-1v-5.3h0.3c0.1,0,0.2,0,0.2,0c0.9,0.1,1.6,0.8,1.5,1.7
	c0,0.1,0,0.1,0,0.2C35.5,57.7,34.9,58.3,34.2,58.2z"/>
<path class="st3" d="M43.1,56.3c-0.1,0-0.1,0-0.2,0c-1.7,0-3.1,1.4-3.1,3c0,0.1,0,0.1,0,0.2c0.1,1.4,1.3,2.4,2.7,2.3
	c0.1,0,0.2,0,0.2,0c1.7,0,3-1.4,3-3.1c0-0.1,0-0.2,0-0.2C45.7,57.2,44.5,56.2,43.1,56.3z M42.9,61.2c-0.5,0-1.2-0.7-1.2-2.2
	c0-1.3,0.4-1.9,1.1-1.9c0.6,0,1.2,0.6,1.2,2.2C43.9,60.5,43.5,61.2,42.9,61.2z"/>
<path class="st3" d="M50.4,58.7v-3.4c0-0.8,0-1.4,0.1-2.1l-2.6,0.8v0.3c0.8,0.4,0.8,0.5,0.8,1.2v3.3c0,0.7,0,1.5,0,2.3l-0.6,0.3v0.4
	H51v-0.4l-0.6-0.3C50.4,60.4,50.4,59.6,50.4,58.7z"/>
<path class="st3" d="M53.9,61.1l-0.6,0.3v0.4h2.9v-0.4l-0.6-0.3c0-0.7,0-1.2,0-1.9v-3l-2.4,0.7v0.3c0.6,0.3,0.7,0.3,0.7,0.9v1
	C54,59.8,54,60.4,53.9,61.1z"/>
<path class="st3" d="M54.8,53.1l-1.1,1.1v0.1c0.3,0.4,0.7,0.7,1.1,1h0.1l1.1-1v-0.1c-0.4-0.3-0.7-0.7-1.1-1.1H54.8z"/>
<path class="st3" d="M61.4,57c0.6,0,1,0.5,1.3,1.3H63l0.4-1.4c-0.5-0.4-1.1-0.6-1.8-0.6c-0.1,0-0.2,0-0.3,0c-1.6,0-2.9,1.3-2.8,2.9
	v0c0,0.1,0,0.2,0,0.3c0,1.3,1.1,2.4,2.5,2.4c0.9,0,1.8-0.4,2.3-1.2l-0.2-0.3c-0.4,0.2-0.8,0.3-1.2,0.3c-0.9,0-1.5-0.7-1.5-2
	C60.3,57.7,60.7,57,61.4,57z"/>
<path class="st3" d="M68.8,56.9c0.5,0.1,0.6,0.3,0.5,0.8l-0.8,2.1l-1-2.2c-0.1-0.3,0-0.5,0.4-0.7v-0.3h-2.7v0.3
	c0.3,0.2,0.6,0.5,0.7,0.9c0.6,1.3,1.2,2.7,1.7,4l-0.2,0.5c-0.3,0.2-0.6,0.3-0.9,0.3c-0.3,0-0.6-0.1-0.9-0.2
	c-0.1,0.2-0.2,0.4-0.2,0.7c0,0,0,0.1,0,0.1c0,0.5,0.4,0.9,0.9,0.8c0.8,0,1.2-0.4,1.9-1.8c0.7-1.6,1.3-3.1,1.9-4.4
	c0.1-0.4,0.4-0.7,0.7-0.8v-0.3h-2V56.9z"/>
</svg>
