<?xml version="1.0" encoding="utf-8"?>
<!-- Generator: Adobe Illustrator 27.3.1, SVG Export Plug-In . SVG Version: 6.00 Build 0)  -->
<svg version="1.1" id="レイヤー_1" xmlns="http://www.w3.org/2000/svg" xmlns:xlink="http://www.w3.org/1999/xlink" x="0px"
	 y="0px" viewBox="0 0 378 341" style="enable-background:new 0 0 378 341;" xml:space="preserve">
<style type="text/css">
	.st0{fill:#E84709;}
	.st1{fill:#FFFFFF;}
</style>
<g>
	<path d="M75.2,62c0.1,6.7-4,10.9-10.8,10.8c-6.7,0.1-10.9-4-10.8-10.8c-0.1-6.7,4-10.9,10.8-10.8C71.2,51.1,75.3,55.3,75.2,62z"/>
	<path d="M136.8,62c0.1,6.7-4,10.9-10.8,10.8c-6.7,0.1-10.9-4-10.8-10.8c-0.1-6.7,4-10.9,10.8-10.8C132.8,51.1,136.9,55.3,136.8,62z
		"/>
	<path d="M263,62c0.1,6.7-4,10.9-10.8,10.8c-6.7,0.1-10.9-4-10.8-10.8c-0.1-6.7,4-10.9,10.8-10.8C259,51.1,263.1,55.3,263,62z"/>
	<path d="M283.3,1.6h-0.7c-46.7,0-85.4,34.2-92.4,79H188c-7-44.8-45.7-79-92.4-79h-0.7C43.2,1.6,1.4,43.5,1.4,95.1v44.7h187.8h187.8
		V95.1C376.9,43.5,335,1.6,283.3,1.6z M64.5,71.8c-11.8,0.1-20.1-4-20-9.8c-0.1-5.8,8.2-9.9,20-9.8c11.8-0.1,20.1,4,20,9.8
		C84.6,67.8,76.2,71.9,64.5,71.8z M126,71.8c-11.8,0.1-20.1-4-20-9.8c-0.1-5.8,8.2-9.9,20-9.8c11.8-0.1,20.1,4,20,9.8
		C146.1,67.8,137.8,71.9,126,71.8z M252.2,71.8c-11.8,0.1-20.1-4-20-9.8c-0.1-5.8,8.2-9.9,20-9.8c11.8-0.1,20.1,4,20,9.8
		C272.3,67.8,264,71.9,252.2,71.8z M313.8,71.8c-11.8,0.1-20.1-4-20-9.8c-0.1-5.8,8.2-9.9,20-9.8c11.8-0.1,20.1,4,20,9.8
		C333.9,67.8,325.6,71.9,313.8,71.8z"/>
	<path d="M324.5,62c0.1,6.7-4,10.9-10.8,10.8c-6.7,0.1-10.9-4-10.8-10.8c-0.1-6.7,4-10.9,10.8-10.8C320.5,51.1,324.7,55.3,324.5,62z
		"/>
	<path d="M2.9,216.7c-0.4,0-0.7-0.3-0.8-0.7c-0.1-0.4,0.1-0.8,0.5-1c3.6-1.8,5.4-4.3,5.6-7.8v-35.6c-0.2-3.5-2-6-5.6-7.8
		c-0.4-0.2-0.5-0.6-0.5-1c0.1-0.4,0.4-0.7,0.8-0.7h23.8c0.4,0,0.7,0.3,0.8,0.7c0.1,0.4-0.1,0.8-0.5,1c-3.6,1.8-5.4,4.3-5.6,7.8v35.6
		c0.2,3.5,2,6,5.6,7.8c0.4,0.2,0.5,0.6,0.5,1c-0.1,0.4-0.4,0.7-0.8,0.7H2.9z"/>
	<path d="M82.8,216.8c-0.3,0-0.5-0.1-0.7-0.3l-30.9-36.7v27.7c0.2,3.4,2,5.9,5.6,7.6c0.4,0.2,0.5,0.6,0.5,1
		c-0.1,0.4-0.4,0.7-0.8,0.7H39.9c-0.4,0-0.7-0.3-0.8-0.7c-0.1-0.4,0.1-0.8,0.5-1c3.6-1.8,5.4-4.3,5.6-7.7v-35.7
		c-0.2-3.4-2-6-5.6-7.7c-0.4-0.2-0.5-0.6-0.5-1c0.1-0.4,0.4-0.7,0.8-0.7h14.3c0.3,0,0.5,0.1,0.7,0.3l28.2,33L83,179.2v-7.4
		c-0.2-3.5-2-6-5.6-7.8c-0.4-0.2-0.5-0.6-0.5-1c0.1-0.4,0.4-0.7,0.8-0.7h16.3c0.4,0,0.7,0.3,0.8,0.7c0.1,0.4-0.1,0.8-0.5,1
		c-3.6,1.8-5.4,4.3-5.6,7.8v44.2c0,0.5-0.4,0.8-0.8,0.9C88,216.8,82.8,216.8,82.8,216.8z"/>
	<path d="M328.1,216.8c-0.3,0-0.5-0.1-0.7-0.3l-30.9-36.7v27.7c0.2,3.4,2,5.9,5.6,7.6c0.4,0.2,0.5,0.6,0.5,1
		c-0.1,0.4-0.4,0.7-0.8,0.7h-16.6c-0.4,0-0.7-0.3-0.8-0.7c-0.1-0.4,0.1-0.8,0.5-1c3.6-1.8,5.4-4.3,5.6-7.7v-35.7
		c-0.2-3.4-2-6-5.6-7.7c-0.4-0.2-0.5-0.6-0.5-1c0.1-0.4,0.4-0.7,0.8-0.7h14.3c0.3,0,0.5,0.1,0.7,0.3l28.2,33l-0.1-16.4v-7.4
		c-0.2-3.5-2-6-5.6-7.8c-0.4-0.2-0.5-0.6-0.5-1c0.1-0.4,0.4-0.7,0.8-0.7h16.3c0.4,0,0.7,0.3,0.8,0.7c0.1,0.4-0.1,0.8-0.5,1
		c-3.6,1.8-5.4,4.3-5.6,7.8v44.2c0,0.5-0.4,0.8-0.8,0.9C333.3,216.8,328.1,216.8,328.1,216.8z"/>
	<path d="M162.3,216.7c-0.4,0-0.7-0.3-0.8-0.7c-0.1-0.4,0.1-0.8,0.5-1c3.6-1.8,5.4-4.3,5.6-7.8v-35.6c-0.2-3.5-2-6-5.6-7.8
		c-0.4-0.2-0.5-0.6-0.5-1c0.1-0.4,0.4-0.7,0.8-0.7h21.9c21.5,0,34.8,9.8,34.8,25.6c0,8.8-3.7,16.2-10.7,21.4
		c-6.5,4.8-15.4,7.4-25.3,7.4H162.3z M180.9,207.9c0,2.9,1.4,4.1,4.6,4.1c9.1,0,18.2-6.7,18.2-21.6c0-13.5-8.4-23.4-19.9-23.4l-3,0
		L180.9,207.9z"/>
	<path d="M352.3,216.7c-0.4,0-0.7-0.3-0.8-0.7c-0.1-0.4,0.1-0.8,0.5-1c5.3-2.7,5.5-6.4,5.6-7.8v-35.6c-0.2-3.5-2-6-5.6-7.8
		c-0.4-0.2-0.5-0.6-0.5-1c0.1-0.4,0.4-0.7,0.8-0.7h23.8c0.4,0,0.7,0.3,0.8,0.7c0.1,0.4-0.1,0.8-0.5,1c-5.3,2.7-5.5,6.4-5.6,7.8v35.6
		c0.2,3.5,2,6,5.6,7.8c0.4,0.2,0.5,0.6,0.5,1c-0.1,0.4-0.4,0.7-0.8,0.7H352.3z"/>
	<path d="M259.3,216.7c-0.4,0-0.7-0.3-0.8-0.6c-0.1-0.4,0.1-0.8,0.4-1c0.4-0.2,0.6-0.5,0.8-0.8c0.7-1.2,0.1-3.2-1-6.5l-0.6-1.9
		c-0.1-0.3-0.1-0.6-0.2-0.8l-1.3-3.6h-20.2l-1,2.8c-0.1,0.2-0.1,0.5-0.2,0.7l-2,5.9c-0.4,1.2-0.6,2.4-0.1,3.2c0.2,0.3,0.5,0.6,1,0.8
		c0.4,0.2,0.5,0.6,0.5,1c-0.1,0.4-0.4,0.7-0.8,0.7h-10.3c-0.4,0-0.7-0.2-0.8-0.6c-0.1-0.4,0-0.7,0.3-1c1.7-1.3,3.1-4.5,4.3-7.9
		l16.3-44.5c0.1-0.3,0.4-0.6,0.8-0.6h12.8c0.4,0,0.7,0.2,0.8,0.6l15.4,44.5c1.7,4.5,2.7,6.6,4.8,7.8c0.3,0.2,0.5,0.6,0.4,1
		c-0.1,0.4-0.4,0.6-0.8,0.6H259.3z M239.4,192.3l-1.1,3.2l16.1,0l-1.1-3.2l-5.6-16.2h-2.3c0,0-0.1,0-0.1,0
		C245.2,176.1,239.4,192.3,239.4,192.3z"/>
	<path d="M135.3,216.7c-0.4,0-0.7-0.3-0.8-0.6c-0.1-0.4,0.1-0.8,0.4-1c0.4-0.2,0.6-0.5,0.8-0.8c0.7-1.2,0.1-3.2-1-6.5l-0.6-1.8
		c-0.1-0.3-0.1-0.6-0.2-0.8l-1.3-3.6h-20.2l-1,2.8c-0.1,0.2-0.1,0.5-0.2,0.7l-2,5.9c-0.4,1.2-0.6,2.4-0.1,3.2c0.2,0.3,0.5,0.6,1,0.8
		c0.4,0.2,0.5,0.6,0.5,1c-0.1,0.4-0.4,0.7-0.8,0.7H99.2c-0.4,0-0.7-0.2-0.8-0.6c-0.1-0.4,0-0.7,0.3-1c1.7-1.3,3.1-4.5,4.3-7.9
		l16.3-44.5c0.1-0.3,0.4-0.6,0.8-0.6h12.8c0.4,0,0.7,0.2,0.8,0.6l15.4,44.5c1.7,4.5,2.7,6.6,4.8,7.8c0.3,0.2,0.5,0.6,0.4,1
		c-0.1,0.4-0.4,0.6-0.8,0.6H135.3z M115.5,192.3l-1.1,3.2l16.1,0l-1.1-3.2l-5.6-16.2h-2.3c0,0-0.1,0-0.1,0
		C121.2,176.1,115.5,192.3,115.5,192.3z"/>
	<path d="M17.8,293.1c-5.6,0-11-1-15.2-2.9c-0.3-0.1-0.5-0.4-0.5-0.8v-13.9c0-0.4,0.3-0.8,0.7-0.8c0.1,0,0.1,0,0.2,0
		c0.3,0,0.6,0.2,0.8,0.5c2.1,4.5,5.3,8.2,9,10.3c0.3,0.2,0.5,0.3,0.8,0.4l0.1,0.1c0.2,0.1,0.4,0.2,0.6,0.3l0.1,0.1
		c0.1,0.1,0.2,0.1,0.4,0.2c1.5,0.6,3.2,0.9,5,0.9c4.8,0,7.6-2.1,7.6-5.8c0-4.5-5.2-7-10.7-9.7C9.3,268.5,1,264.5,1,254.9
		c0-11.7,10.6-17,20.4-17c5.4,0,10.1,1.3,13.6,2.4c0.4,0.1,0.6,0.4,0.6,0.8v12.3c0,0.4-0.3,0.8-0.7,0.8c-0.1,0-0.1,0-0.2,0
		c-0.3,0-0.6-0.2-0.8-0.5c-1.4-3.1-3.2-5.3-3.3-5.3c-0.5-0.5-1-1-1.6-1.5l-0.3-0.2c-2-1.5-4.2-2.3-5.7-2.8c-0.7-0.2-1.2-0.3-1.4-0.3
		c-0.1,0-0.2,0-0.2,0c0,0-0.1,0-0.1,0c-0.6-0.1-1.1-0.1-1.6-0.1c-4,0-8,1.8-8,5.8c0,4.4,5.2,6.5,10.7,8.8c7.4,3,16.6,6.8,16.6,17.4
		C39.1,287.7,28.4,293.1,17.8,293.1z"/>
	<path d="M167.6,293.1c-5.6,0-11-1-15.2-2.9c-0.3-0.1-0.5-0.4-0.5-0.8v-13.9c0-0.4,0.3-0.8,0.7-0.8c0.1,0,0.1,0,0.2,0
		c0.3,0,0.6,0.2,0.8,0.5c2.1,4.5,5.3,8.2,9,10.3c0.3,0.2,0.5,0.3,0.8,0.4l0.1,0.1c0.2,0.1,0.4,0.2,0.6,0.3l0.1,0.1
		c0.1,0.1,0.2,0.1,0.4,0.2c1.5,0.6,3.2,0.9,5,0.9c4.8,0,7.6-2.1,7.6-5.8c0-4.5-5.2-7-10.7-9.7c-7.3-3.5-15.6-7.5-15.6-17.1
		c0-11.7,10.6-17,20.4-17c5.4,0,10.1,1.3,13.6,2.4c0.4,0.1,0.6,0.4,0.6,0.8v12.3c0,0.4-0.3,0.8-0.7,0.8c-0.1,0-0.1,0-0.2,0
		c-0.3,0-0.6-0.2-0.8-0.5c-1.4-3.1-3.2-5.3-3.3-5.3c-0.5-0.5-1-1-1.6-1.5l-0.3-0.2c-2-1.5-4.2-2.3-5.7-2.8c-0.7-0.2-1.2-0.3-1.4-0.3
		c-0.1,0-0.2,0-0.2,0c0,0-0.1,0-0.1,0c-0.6-0.1-1.1-0.1-1.6-0.1c-4,0-8,1.8-8,5.8c0,4.4,5.2,6.5,10.7,8.8c7.4,3,16.6,6.8,16.6,17.4
		C188.9,287.7,178.2,293.1,167.6,293.1z"/>
	<path d="M48.3,292.3c-0.4,0-0.7-0.3-0.8-0.7c-0.1-0.4,0.1-0.8,0.5-1c3.6-1.8,5.4-4.3,5.6-7.8v-35.6c-0.2-3.5-2-6-5.6-7.8
		c-0.4-0.2-0.5-0.6-0.5-1c0.1-0.4,0.4-0.7,0.8-0.7h40.3c0.5,0,0.9,0.4,0.9,0.9v9.8c0,0.4-0.3,0.7-0.7,0.8c-0.1,0-0.1,0-0.2,0
		c-0.3,0-0.6-0.2-0.8-0.5c-1.8-3.6-4.3-5.4-7.7-5.6H69c-2.6,0.1-3,1.5-3.1,2.5c0,0,0,0.1,0,0.1v16.6h10.4c2.6-0.1,4.5-1.4,6-3.9
		c0.2-0.3,0.4-0.4,0.7-0.4c0.1,0,0.1,0,0.2,0c0.4,0.1,0.6,0.4,0.6,0.8v11.7c0,0.4-0.3,0.7-0.6,0.8c-0.1,0-0.1,0-0.2,0
		c-0.3,0-0.6-0.2-0.7-0.4c-1.4-2.5-3.4-3.8-6-3.9H65.9v17c0,0,0,0.1,0,0.1c0.1,1,0.4,2.3,3.1,2.5h11c3.4-0.2,6-2,7.7-5.6
		c0.1-0.3,0.4-0.5,0.8-0.5c0.1,0,0.1,0,0.2,0c0.4,0.1,0.7,0.4,0.7,0.8v9.8c0,0.5-0.4,0.9-0.9,0.9H48.3z"/>
	<path d="M99,292.3c-0.4,0-0.7-0.3-0.8-0.7c-0.1-0.4,0.1-0.8,0.5-1c3.6-1.8,5.4-4.3,5.6-7.8v-35.6c-0.2-3.5-2-6-5.6-7.8
		c-0.4-0.2-0.5-0.6-0.5-1c0.1-0.4,0.4-0.7,0.8-0.7h40.3c0.5,0,0.9,0.4,0.9,0.9v9.8c0,0.4-0.3,0.7-0.7,0.8c-0.1,0-0.1,0-0.2,0
		c-0.3,0-0.6-0.2-0.8-0.5c-1.8-3.6-4.3-5.4-7.7-5.6h-11c-2.6,0.1-3,1.5-3.1,2.5c0,0,0,0.1,0,0.1v16.6h10.4c2.6-0.1,4.5-1.4,6-3.9
		c0.2-0.3,0.4-0.4,0.7-0.4c0.1,0,0.1,0,0.2,0c0.4,0.1,0.6,0.4,0.6,0.8v11.7c0,0.4-0.3,0.7-0.6,0.8c-0.1,0-0.1,0-0.2,0
		c-0.3,0-0.6-0.2-0.7-0.4c-1.4-2.5-3.4-3.8-6-3.9h-10.4v17c0,0,0,0.1,0,0.1c0.1,1,0.4,2.3,3.1,2.5h11c3.4-0.2,6-2,7.7-5.6
		c0.1-0.3,0.4-0.5,0.8-0.5c0.1,0,0.1,0,0.2,0c0.4,0.1,0.7,0.4,0.7,0.8v9.8c0,0.5-0.4,0.9-0.9,0.9H99z"/>
	<g>
		<path d="M277.1,261.9c-0.3,0-0.5-0.2-0.5-0.4s0.1-0.5,0.3-0.6c0.8-0.4,1.3-1,1.4-1.8l0-7.8l0-2.7c0-0.1,0-0.2,0-0.3l0-0.2
			c-0.1-0.7-0.5-1.3-1.4-1.8c-0.2-0.1-0.3-0.4-0.3-0.6c0.1-0.2,0.3-0.4,0.5-0.4l6.7,0c6,0,7.2,2.2,7.2,4c0,2-1.7,3.2-3.5,3.8
			c2.2,0.6,4.2,1.7,4.2,4.2c0,2.9-3.1,4.6-8,4.6H277.1z M282.4,258.2c0,1.4,0.9,2,2.2,2c1.2,0,2.4-1.3,2.4-2.8
			c0-2.1-1.6-3.4-3.8-3.4h-0.6L282.4,258.2z M283.6,252.4c1.6,0,3-1,3-2.4c0-1.7-1.6-2.9-3.5-2.9h-0.6l0,5.3H283.6z"/>
		<path d="M348.9,262.1c-6.1,0-8.3-4.4-8.3-8.2c0-5.7,4.6-8.8,9-8.8c2.6,0,4.7,0.9,6.2,2.5c1.3,1.5,2.1,3.5,2.1,5.8
			C357.8,259,353.2,262.1,348.9,262.1z M348.9,247.2c-1.7,0-3.4,1.8-3.4,5.9c0,3.9,1.6,6.7,3.9,6.7c1.6,0,3.3-1.8,3.3-5.7
			C352.8,250,351.2,247.2,348.9,247.2z"/>
		<path d="M208.9,261.9c-0.3,0-0.5-0.2-0.5-0.4c-0.1-0.2,0.1-0.5,0.3-0.6c0.9-0.5,1.4-1.1,1.4-2l0-10.5c0-0.9-0.5-1.6-1.4-2
			c-0.2-0.1-0.3-0.4-0.3-0.6c0.1-0.2,0.3-0.4,0.5-0.4l6.9,0c0.3,0,0.5,0.2,0.5,0.4c0.1,0.2-0.1,0.5-0.3,0.6c-0.9,0.5-1.4,1.1-1.4,2
			l0,10.5c0,0.9,0.5,1.6,1.4,2c0.2,0.1,0.3,0.4,0.3,0.6c-0.1,0.3-0.3,0.4-0.5,0.4H208.9z"/>
		<path d="M233,261.9c-0.2,0-0.3,0-9-10.4v7.4c0.1,0.9,0.5,1.5,1.4,2c0.2,0.1,0.3,0.4,0.3,0.6c-0.1,0.2-0.3,0.4-0.5,0.4l-4.7,0
			c-0.3,0-0.5-0.2-0.5-0.4c-0.1-0.2,0.1-0.5,0.3-0.6c0.9-0.5,1.4-1.1,1.4-2l0-10.5c0-0.9-0.5-1.5-1.4-2c-0.2-0.1-0.3-0.4-0.3-0.6
			c0.1-0.2,0.3-0.4,0.5-0.4l4.1,0c0.2,0,0.3,0.1,0.4,0.2l7.8,9.1l0-4.1v-2.2c-0.1-0.9-0.5-1.5-1.4-2c-0.2-0.1-0.3-0.4-0.3-0.6
			c0.1-0.2,0.3-0.4,0.5-0.4l4.6,0c0.3,0,0.5,0.2,0.5,0.4c0.1,0.2-0.1,0.5-0.3,0.6c-0.9,0.5-1.4,1.1-1.4,2l0,13
			c0,0.3-0.2,0.5-0.5,0.5C234.5,261.9,233,261.9,233,261.9z"/>
		<path d="M294.5,261.9c-0.2,0-0.4-0.1-0.5-0.4c-0.1-0.2,0-0.5,0.2-0.6c0.4-0.4,0.8-1.3,1.2-2.2l4.8-13.1c0.1-0.2,0.3-0.4,0.5-0.4
			l3.8,0c0.2,0,0.4,0.1,0.5,0.4l4.5,13.1c0.5,1.4,0.8,1.8,1.3,2.1c0.2,0.1,0.3,0.4,0.2,0.7c-0.1,0.2-0.3,0.3-0.5,0.3h-5.2
			c-0.2,0-0.4-0.2-0.5-0.4c-0.1-0.2,0-0.5,0.2-0.6c0.1,0,0.1-0.1,0.1-0.1c0.1-0.3-0.1-0.9-0.3-1.7l-0.2-0.5c0-0.1,0-0.2-0.1-0.2
			l-0.3-0.9h-5.6l-0.2,0.7c0,0.1,0,0.1-0.1,0.2l-0.6,1.7c-0.1,0.4-0.1,0.6-0.1,0.7c0,0,0.1,0.1,0.1,0.1c0.2,0.1,0.3,0.4,0.3,0.6
			c-0.1,0.2-0.3,0.4-0.5,0.4L294.5,261.9z M303.2,255.1l-1.8-5.2l-0.3,0c-0.2,0.5-0.7,1.8-1.7,4.6l-0.2,0.6L303.2,255.1z"/>
		<path d="M330.5,261.9c-0.3,0-0.5-0.2-0.5-0.4c-0.1-0.2,0.1-0.5,0.3-0.6c0.9-0.5,1.4-1.1,1.4-2l0-10.5c0-0.9-0.5-1.6-1.4-2
			c-0.2-0.1-0.3-0.4-0.3-0.6c0.1-0.2,0.3-0.4,0.5-0.4l6.9,0c0.3,0,0.5,0.2,0.5,0.4c0.1,0.2-0.1,0.5-0.3,0.6c-0.9,0.5-1.4,1.1-1.4,2
			l0,10.5c0,0.9,0.5,1.5,1.4,2c0.2,0.1,0.3,0.4,0.3,0.6c-0.1,0.3-0.3,0.4-0.5,0.4H330.5z"/>
		<path d="M373,261.9c-0.2,0-0.3,0-9-10.4v7.4c0.1,0.9,0.5,1.5,1.4,2c0.2,0.1,0.3,0.4,0.3,0.6s-0.3,0.4-0.5,0.4l-4.7,0
			c-0.3,0-0.5-0.2-0.5-0.4c-0.1-0.2,0.1-0.5,0.3-0.6c0.9-0.5,1.4-1.1,1.4-2l0-10.5c0-0.9-0.5-1.5-1.4-2c-0.2-0.1-0.3-0.4-0.3-0.6
			c0.1-0.2,0.3-0.4,0.5-0.4l4.1,0c0.2,0,0.3,0.1,0.4,0.2l7.8,9.1l0-4.1v-2.2c-0.1-0.9-0.5-1.5-1.4-2c-0.2-0.1-0.3-0.4-0.3-0.6
			c0.1-0.2,0.3-0.4,0.5-0.4l4.6,0c0.3,0,0.5,0.2,0.5,0.4c0.1,0.2-0.1,0.5-0.3,0.6c-0.9,0.5-1.4,1.1-1.4,2l0,13
			c0,0.3-0.2,0.5-0.5,0.5C374.5,261.9,373,261.9,373,261.9z"/>
		<path d="M225.4,286c-0.3,0-0.5-0.2-0.5-0.4c-0.1-0.2,0.1-0.5,0.3-0.6c0.9-0.5,1.4-1.1,1.4-2l0-10.5c0-0.9-0.5-1.5-1.4-2
			c-0.2-0.1-0.3-0.4-0.3-0.6c0.1-0.2,0.3-0.4,0.5-0.4l6.9,0c0.3,0,0.5,0.2,0.5,0.4c0.1,0.2-0.1,0.5-0.3,0.6c-0.9,0.5-1.4,1.1-1.4,2
			l0,10.5c0,0.9,0.5,1.6,1.4,2c0.2,0.1,0.3,0.4,0.3,0.6c-0.1,0.3-0.3,0.4-0.5,0.4H225.4z"/>
		<path d="M254.7,286c-0.3,0-0.5-0.2-0.5-0.4c-0.1-0.2,0.1-0.5,0.3-0.6c0.9-0.5,1.4-1.1,1.4-2l0-10.5c0-0.9-0.5-1.5-1.4-2
			c-0.2-0.1-0.3-0.4-0.3-0.6c0.1-0.2,0.3-0.4,0.5-0.4l6.6,0c0.3,0,0.5,0.2,0.5,0.4c0.1,0.2-0.1,0.5-0.3,0.6
			c-0.9,0.5-1.3,1.1-1.4,1.9l0,11.5h3.9c0.9-0.1,1.5-0.5,2-1.4c0.1-0.2,0.3-0.3,0.5-0.3c0,0,0.1,0,0.1,0c0.2,0.1,0.4,0.3,0.4,0.5
			l0,2.8c0,0.1-0.1,0.3-0.2,0.4c-0.1,0.1-0.2,0.2-0.4,0.2H254.7z"/>
		<path d="M270.6,286c-0.3,0-0.5-0.2-0.5-0.4c-0.1-0.2,0.1-0.5,0.3-0.6c0.9-0.5,1.4-1.1,1.4-2l0-10.5c0-0.9-0.5-1.6-1.4-2
			c-0.2-0.1-0.3-0.4-0.3-0.6c0.1-0.2,0.3-0.4,0.5-0.4l6.3,0c6.5,0,10.6,3,10.6,7.8c0,0.2,0,0.3,0,0.5c0,0.1,0,0.3,0,0.5
			c0,4.8-4,7.8-10.6,7.8H270.6z M276.9,271.2c-0.1,0-0.1,0.1-0.2,0.1c-0.3,0.1-0.4,0.2-0.4,0.4l0,11.8c0,0.2,0.1,0.4,0.6,0.4
			c3.2,0,5.5-2.6,5.6-6.4c-0.1-3.7-2.3-6.2-5.4-6.4C277,271.3,277,271.3,276.9,271.2z"/>
		<path d="M237.3,286c-0.3,0-0.5-0.2-0.5-0.4c-0.1-0.2,0.1-0.5,0.3-0.6c0.9-0.5,1.4-1.1,1.4-2l0-10.5c0-0.9-0.5-1.5-1.4-2
			c-0.2-0.1-0.3-0.4-0.3-0.6c0.1-0.2,0.3-0.4,0.5-0.4l11.8,0c0.3,0,0.5,0.2,0.5,0.5l0,2.8c0,0.3-0.2,0.5-0.4,0.5c0,0-0.1,0-0.1,0
			c-0.2,0-0.4-0.1-0.5-0.3c-0.5-0.9-1.1-1.4-2-1.4l-3.3,0c-0.5,0-0.6,0.3-0.6,0.5l0,4.6h2.8c0.6,0,1.1-0.3,1.5-1
			c0.1-0.2,0.3-0.3,0.5-0.3c0,0,0.1,0,0.1,0c0.2,0.1,0.4,0.3,0.4,0.5l0,3.3c0,0.2-0.2,0.5-0.4,0.5c0,0-0.1,0-0.1,0
			c-0.2,0-0.4-0.1-0.5-0.3c-0.4-0.6-0.9-0.9-1.5-1l-2.8,0v4.8c0,0.2,0.1,0.5,0.7,0.5l3.2,0c0.9-0.1,1.5-0.5,2-1.4
			c0.1-0.2,0.3-0.3,0.5-0.3c0,0,0.1,0,0.1,0c0.2,0.1,0.4,0.3,0.4,0.5l0,2.8c0,0.1-0.1,0.3-0.2,0.4c-0.1,0.1-0.2,0.2-0.4,0.2H237.3z"
			/>
		<path d="M209,286c-0.3,0-0.5-0.2-0.5-0.4c-0.1-0.2,0.1-0.5,0.3-0.6c0.9-0.5,1.4-1.1,1.4-2l0-10.5c0-0.9-0.5-1.5-1.4-2
			c-0.2-0.1-0.3-0.4-0.3-0.6c0.1-0.2,0.3-0.4,0.5-0.4l11.8,0c0.3,0,0.5,0.2,0.5,0.5l0,2.8c0,0.3-0.2,0.5-0.4,0.5c0,0-0.1,0-0.1,0
			c-0.2,0-0.4-0.1-0.5-0.3c-0.5-0.9-1.1-1.4-2-1.4l-3.9,0v5.1h2.8c0.6,0,1.1-0.3,1.5-1c0.1-0.2,0.3-0.3,0.5-0.3c0,0,0.1,0,0.1,0
			c0.2,0.1,0.4,0.3,0.4,0.5l0,3.3c0,0.2-0.2,0.5-0.4,0.5c0,0-0.1,0-0.1,0c-0.2,0-0.4-0.1-0.5-0.3c-0.4-0.6-0.9-0.9-1.5-1l-2.8,0v4.4
			c0.1,0.9,0.5,1.5,1.4,2c0.2,0.1,0.4,0.4,0.3,0.7c-0.1,0.2-0.3,0.4-0.5,0.4H209z"/>
		<path d="M265.3,262.2c-2.6,0-7-1-7-7.5v-6.3c0-0.9-0.5-1.5-1.4-2c-0.2-0.1-0.3-0.4-0.3-0.6c0.1-0.2,0.3-0.4,0.5-0.4l6.8,0
			c0.3,0,0.5,0.2,0.5,0.4c0.1,0.2-0.1,0.5-0.3,0.6c-0.9,0.5-1.4,1.1-1.4,2v6.2c0,3.2,1.4,5.1,3.7,5.1c2.7,0,3.2-2.6,3.2-4.8v-6.5
			c-0.1-0.9-0.5-1.5-1.4-2c-0.2-0.1-0.3-0.4-0.3-0.6c0.1-0.2,0.3-0.4,0.5-0.4l4.9,0c0.3,0,0.5,0.2,0.5,0.4c0.1,0.2-0.1,0.5-0.3,0.6
			c-0.9,0.5-1.4,1.1-1.4,2l0,5.8C272.2,259.3,269.7,262.2,265.3,262.2z"/>
		<path d="M315.7,261.9c-0.3,0-0.5-0.2-0.5-0.4c-0.1-0.2,0.1-0.5,0.3-0.6c0.9-0.5,1.4-1.1,1.4-2l0-10.5c0-0.2,0-0.5-0.7-0.5l-2,0
			c-0.9,0-1.6,0.5-2,1.4c-0.1,0.2-0.3,0.3-0.5,0.3c0,0-0.1,0-0.1,0c-0.2-0.1-0.4-0.3-0.4-0.5l0-3.2c0-0.1,0.1-0.3,0.2-0.4
			c0.1-0.1,0.2-0.2,0.4-0.2l15,0c0.3,0,0.5,0.2,0.5,0.5l0,3.2c0,0.3-0.2,0.5-0.4,0.5c0,0-0.1,0-0.1,0c-0.2,0-0.4-0.1-0.5-0.3
			c-0.5-0.9-1.1-1.4-2-1.4l-2.2,0c-0.6,0-0.6,0.3-0.7,0.5l0,10.5c0,0.9,0.5,1.5,1.4,2c0.2,0.1,0.3,0.4,0.3,0.6
			c-0.1,0.3-0.3,0.4-0.5,0.4H315.7z"/>
		<path d="M247.5,262.1c-5.2,0-8.5-3.2-8.5-8.2c0-5.7,4.9-8.8,9.6-8.8c1.6,0,3.2,0.4,4.4,1.2c0.2,0.1,0.3,0.3,0.3,0.5l0,3.2
			c0,0.3-0.2,0.5-0.4,0.5c0,0-0.1,0-0.1,0c-0.2,0-0.4-0.1-0.5-0.3c-0.5-1-1.6-2-2.8-2.5c-0.2-0.1-0.3-0.1-0.4-0.2
			c-0.3-0.1-0.7-0.1-1.1-0.1c-2.4,0-3.8,2-3.8,5.5c0,4.2,1.6,7,4.1,7c0.4,0,0.8,0,1.2-0.1c0.2-0.1,0.4-0.1,0.5-0.2
			c1.1-0.5,2-1.4,2.5-2.5c0.1-0.2,0.3-0.3,0.5-0.3c0,0,0.1,0,0.1,0c0.3,0.1,0.4,0.3,0.4,0.5l0,3.3c0,0.2-0.1,0.4-0.3,0.5
			C251.7,261.7,249.8,262.1,247.5,262.1z"/>
	</g>
</g>
<g>
	<path d="M5.7,324.1c0,0.2,0.1,0.2,0.2,0.2c0.2,0,0.6,0,0.6,0.3c0,0.2-0.2,0.3-0.3,0.4C6,325.3,6,325.8,6,326.6v9.8
		c0,1.2,0.1,2.4,0.1,3.6c0,0.8-0.3,0.9-1.4,0.9c-1.1,0-1.4-0.1-1.4-0.9c0-1.2,0.1-2.4,0.1-3.6v-7.6c0-0.1-0.1-0.3-0.2-0.3
		c-0.1,0-0.2,0.1-0.2,0.1c-0.2,0.3-0.9,1.2-1.3,1.2c-0.5,0-1.5-1.4-1.5-1.9c0-0.4,0.3-0.6,0.5-0.9c2.3-2.9,3.9-6.2,5-9.8
		c0.1-0.2,0.2-0.6,0.5-0.6c0.2,0,1.3,0.4,1.8,0.6c0.1,0,0.2,0.1,0.2,0.1c0.5,0.2,0.8,0.3,0.8,0.6c0,0.2-0.2,0.3-0.3,0.3
		c-0.3,0.1-0.3,0.2-0.6,0.8c-0.6,1.7-1.2,3.2-2.1,4.8C5.7,324,5.7,324,5.7,324.1z M23.7,323.5c0.7,0,0.7,0.3,0.7,1.3s0,1.3-0.7,1.3
		c-0.3,0-0.7,0-1.1,0c-0.5,0-0.7,0.2-0.7,0.7v1.9c0,0.9,0.1,1.9,0.1,2.9c0,0.7-0.4,0.7-1.4,0.7c-0.9,0-1.1,0-1.3-0.3
		c-0.2-0.2-0.3-0.4-0.5-0.4H16c-0.5,0-0.7,0.2-0.8,0.7c-0.5,3.5-2,5.9-4.8,8c-0.3,0.2-0.8,0.6-1.2,0.6c-0.6,0-1.7-1.3-1.7-1.8
		c0-0.3,0.4-0.5,0.7-0.7c2.2-1.3,3.9-3.5,4.3-6.1v-0.2c0-0.4-0.3-0.5-0.6-0.5c-1,0-2,0.1-3.1,0.1c-0.7,0-0.6-0.3-0.6-1.3
		c0-1,0-1.3,0.6-1.3c1,0,2.1,0.1,3.1,0.1H12c0.5,0,0.7-0.2,0.7-0.7v-1.6c0-0.5-0.2-0.7-0.7-0.7h-1.3c-1,0-2,0.1-3,0.1
		c-0.7,0-0.7-0.3-0.7-1.3c0-1,0-1.3,0.7-1.3c1,0,2,0.1,3,0.1H12c0.5,0,0.7-0.2,0.7-0.7v-1.5c0-0.5-0.2-0.7-0.7-0.7h-0.8
		c-0.7,0-1.3,0.1-2,0.1c-0.5,0-0.5-0.4-0.5-1.3c0-1,0-1.3,0.5-1.3c0.5,0,1.3,0.1,2,0.1h7.6c0.6,0,1.3-0.1,2-0.1c1,0,1.3,0.4,1.3,1.4
		c0,0.7,0,1.5,0,2.3v1.1c0,0.5,0.2,0.7,0.7,0.7C23,323.5,23.3,323.5,23.7,323.5z M18.6,323.5c0.5-0.1,0.7-0.3,0.7-0.7v-1.5
		c-0.1-0.5-0.3-0.7-0.7-0.7h-2.5c-0.5,0.1-0.7,0.3-0.7,0.7v1.5c0.1,0.5,0.3,0.7,0.7,0.7H18.6z M18.6,329.1c0.5,0,0.7-0.2,0.7-0.7
		v-1.6c0-0.5-0.2-0.7-0.7-0.7h-2.5c-0.5,0-0.7,0.2-0.7,0.7v1.6c0,0.5,0.2,0.7,0.7,0.7H18.6z"/>
	<path d="M35.5,331.9c0-0.4-0.2-0.5-0.6-0.5c-0.5,0-1,0-1.6,0c-0.6,0-0.6-0.3-0.6-1.3c0-0.9,0-1.3,0.6-1.3c0.2,0,1.6,0,1.9,0.1
		c0.5,0,0.7-0.2,0.8-0.7c0.1-0.6,0.1-1.2,0.1-1.8c0-0.5-0.2-0.7-0.7-0.7c-0.4,0-1.8,0.1-2.1,0.1c-0.6,0-0.6-0.3-0.6-1.3
		c0-0.9,0-1.3,0.5-1.3c0.7,0,1.5,0.1,2.2,0.1c0.5,0,0.7-0.3,0.7-0.7v-1.7c0-0.5-0.2-0.7-0.7-0.7c-0.4,0-1.1,0.1-1.5,0.1
		c-0.6,0-0.6-0.3-0.6-1.3c0-1,0-1.3,0.6-1.3c1.1,0,2.1,0.1,3.2,0.1h2.9c0.9,0,1.8,0,2.8,0c1.6,0,1.6,1.1,1.6,2.3
		c0,4.2,0.2,14.7-1.4,18.3c-0.9,2.1-2.7,2.4-4.8,2.4c-1.2,0-1.6-0.1-1.6-1.8c0-0.3,0-0.9,0.5-0.9c0.2,0,0.5,0,0.6,0.1
		c0.3,0,0.5,0.1,0.9,0.1c0.6,0,1.4-0.1,1.8-0.6c0.7-0.9,1-4.1,1.1-5.3c0-0.5-0.2-0.7-0.7-0.7h-2c-0.5,0-0.7,0.2-0.9,0.7
		c-0.5,2.6-1.5,5.3-3,7.5c-0.2,0.3-0.5,0.8-0.9,0.8c-0.6,0-1.9-1-1.9-1.5c0-0.2,0.3-0.6,0.4-0.7c1.3-1.6,2.2-4.1,2.7-6.1V331.9z
		 M41,329c0.5,0,0.7-0.2,0.8-0.7c0.1-0.6,0.1-1.2,0-1.8c0-0.5-0.2-0.7-0.7-0.7h-1.7c-0.5,0-0.7,0.2-0.8,0.7c0,0.6-0.1,1.2-0.1,1.8
		c0,0.5,0.2,0.7,0.7,0.7H41z M41.1,323.3c0.5,0,0.7-0.2,0.7-0.7v-1.6c0-0.9-0.4-1-1.4-1h-1c-0.5,0-0.7,0.2-0.7,0.7v1.7
		c0,0.5,0.2,0.7,0.7,0.7H41.1z M50.2,320.3c-0.5,0-0.7,0.2-0.7,0.7v15c0,1.3,0.1,2.6,0.1,3.9c0,0.8-0.2,0.9-1.4,0.9
		c-1.1,0-1.4,0-1.4-0.9c0-1.3,0.1-2.6,0.1-3.9v-14.6c0-0.8-0.1-1.6-0.1-2.4c0-1.1,0.6-1.3,1.6-1.3c0.7,0,1.4,0.1,2.1,0.1h2.2
		c0.6,0,1.1-0.1,1.7-0.1c1.4,0,1.9,0.9,1.9,1.4c0,0.9-2.2,5.2-2.8,6.2c-0.1,0.2-0.2,0.3-0.2,0.5c0,0.2,0.2,0.5,0.3,0.6
		c1.5,1.9,2.6,3.9,2.6,6.3c0,1.2-0.2,2.5-1.1,3.3c-0.9,0.9-2,0.9-3.2,0.9c-0.7,0-1.8,0.2-1.8-2.2c0-0.3,0.1-0.6,0.5-0.6
		c0.2,0,0.7,0.1,1.1,0.1c1.3,0,1.6-0.9,1.6-2c0-1.9-1-3.5-2.1-4.9c-0.3-0.3-0.8-0.9-0.8-1.3c0-0.2,0.1-0.4,0.2-0.6
		c0.7-1.4,1.4-2.9,2.1-4.4c0.1-0.1,0.1-0.3,0.1-0.5c0-0.3-0.5-0.3-0.7-0.3H50.2z"/>
	<path d="M78,319.7c0,0.5,0.2,0.7,0.7,0.7h6c1,0,2.1-0.1,3.1-0.1c0.7,0,0.6,0.3,0.6,1.3c0,1,0,1.3-0.6,1.3c-1.1,0-2.1-0.1-3.2-0.1
		h-7.2c0,0-0.1,0-0.1,0.1s0,0.1,0.1,0.1c0.1,0,0.2,0,0.3,0c0.5,0,1,0.1,1,0.3c0,0.2-0.2,0.3-0.4,0.4C78,324,78,324.3,78,325v0.6
		c0,0.5,0.3,0.7,0.7,0.7h3.6c0.7,0,1.4-0.1,2.1-0.1c1,0,1.4,0.2,1.4,1.3c0,0.7,0,1.4,0,2.2v5.5c0,0.9,0,1.8-0.7,2.4
		c-0.9,0.8-2.5,0.8-3.6,0.8c-0.9,0-1.6,0.1-1.6-2c0-0.4,0.1-0.8,0.5-0.8c0.3,0,1,0.1,1.6,0.1c1,0,1.2-0.1,1.2-1.5v-4.6
		c0-0.5-0.2-0.7-0.7-0.7h-3.6c-0.5,0-0.7,0.2-0.7,0.7v7c0,1.2,0.1,2.3,0.1,3.5c0,0.8-0.3,0.8-1.4,0.8s-1.4,0-1.4-0.8
		c0-1.2,0.1-2.3,0.1-3.5v-7c0-0.5-0.2-0.7-0.7-0.7H71c-0.5,0-0.7,0.2-0.7,0.7v4.6c0,1.1,0.1,2.2,0.1,3.2c0,0.8-0.2,0.8-1.4,0.8
		c-1.2,0-1.4,0-1.4-0.8c0-1.1,0.1-2.1,0.1-3.2v-4.5c0-0.7-0.1-1.5-0.1-2.2c0-1,0.4-1.3,1.4-1.3c0.7,0,1.4,0.1,2.1,0.1h3.5
		c0.5,0,0.7-0.2,0.7-0.7c0-0.7,0-1.4-0.1-2.1c-0.1-0.4-0.2-0.5-0.5-0.6h-6.1c-1.1,0-2.1,0.1-3.2,0.1c-0.6,0-0.6-0.3-0.6-1.3
		c0-1,0-1.3,0.6-1.3c1.1,0,2.1,0.1,3.2,0.1h5.9c0.5,0,0.7-0.2,0.7-0.7v-0.3c0-0.7,0-1.3-0.1-2c0-0.1,0-0.2,0-0.2
		c0-0.3,0.3-0.3,0.5-0.3c0.5,0,1.9,0.1,2.5,0.2c0.2,0,0.6,0.1,0.6,0.3c0,0.2-0.2,0.3-0.4,0.4c-0.3,0.1-0.3,0.5-0.3,1V319.7z"/>
	<path d="M103.2,324.6c0.3,0,0.5-0.1,0.5-0.4c0-0.1,0-0.1-0.1-0.2c-0.1-0.2-0.2-0.5-0.4-0.9c-0.2-0.5-0.5-1-0.5-1.1
		c0-0.2,0.1-0.3,0.2-0.4c0,0,0.1-0.1,0.1-0.1s-0.1-0.1-0.1-0.1h-1c-1,0-2.1,0.1-3.1,0.1c-0.7,0-0.6-0.3-0.6-1.2c0-0.9,0-1.2,0.6-1.2
		c1,0,2.1,0.1,3.1,0.1h4.6c0.5,0,0.7-0.2,0.7-0.7c0-0.3,0-0.8-0.1-1.1c0-0.1,0-0.2,0-0.2c0-0.3,0.3-0.4,0.5-0.4
		c0.5,0,1.8,0.1,2.4,0.2c0.2,0,0.7,0,0.7,0.3c0,0.2-0.2,0.2-0.3,0.4c-0.3,0.2-0.3,0.5-0.3,0.8c0,0.5,0.3,0.7,0.7,0.7h4.8
		c1,0,2.1-0.1,3.1-0.1c0.6,0,0.6,0.3,0.6,1.2c0,0.9,0,1.2-0.6,1.2c-1,0-2.1-0.1-3.1-0.1h-1.2c-0.1,0-0.1,0-0.1,0.1s0,0.1,0.1,0.1
		c0.4,0.1,1.1,0.3,1.1,0.6c0,0.2-0.2,0.2-0.3,0.2c-0.3,0.1-0.4,0.1-0.6,0.3c-0.2,0.4-0.5,0.8-0.7,1.3c0,0.1-0.1,0.1-0.1,0.2
		c0,0.3,0.2,0.3,0.5,0.4h1.7c1.1,0,2.1-0.1,3.2-0.1c0.6,0,0.6,0.2,0.6,1.2c0,1,0,1.2-0.6,1.2c-1.1,0-2.1-0.1-3.2-0.1h-14
		c-0.5,0-0.7,0.2-0.7,0.7v3.3c0,2.6-0.4,5.1-1.3,7.5c-0.2,0.6-0.7,1.6-1.1,2.1c-0.1,0.2-0.2,0.2-0.5,0.2c-0.5,0-2-0.7-2-1.3
		c0-0.1,0.1-0.2,0.1-0.3c1.6-2.5,2.1-5.8,2.1-8.7v-2.7c0-0.7,0-1.4,0-2c0-1,0.6-1.2,1.7-1.2c0.6,0,1.4,0.1,2.3,0.1H103.2z
		 M103.6,335.2c-0.1,0.2-0.3,0.4-0.6,0.4c-0.5,0-1.7-0.7-1.7-1.2c0-0.1,0.1-0.3,0.2-0.4c1.2-1.8,2.4-4.1,2.9-6.2
		c0.1-0.2,0.1-0.4,0.4-0.4c0.2,0,1.9,0.5,2.2,0.6c0.2,0.1,0.4,0.1,0.4,0.3c0,0.2-0.2,0.3-0.4,0.3c-0.3,0.1-0.3,0.1-0.4,0.4
		c0,0.1-0.1,0.1-0.1,0.2c0,0.3,0.2,0.4,0.5,0.4h1.7c0.5,0,0.7-0.3,0.7-0.7c0-0.1,0-0.2,0-0.4c-0.1-0.5-0.1-1-0.1-1.1
		c0-0.3,0.2-0.4,0.5-0.4c0.4,0,1.9,0.2,2.3,0.2c0.2,0,0.6,0.1,0.6,0.4c0,0.2-0.1,0.2-0.3,0.4c-0.3,0.2-0.3,0.5-0.3,0.9
		c0,0.5,0.3,0.7,0.7,0.7h2.5c1,0,2-0.1,3.1-0.1c0.6,0,0.6,0.3,0.6,1.1c0,0.9,0,1.1-0.6,1.1c-1,0-2-0.1-3.1-0.1h-2.5
		c-0.5,0-0.7,0.2-0.7,0.7v0.4c0,0.5,0.2,0.7,0.7,0.7h1.9c0.9,0,1.8-0.1,2.8-0.1c0.6,0,0.6,0.3,0.6,1.1s0,1.1-0.6,1.1
		c-0.9,0-1.9-0.1-2.8-0.1h-1.9c-0.5,0-0.7,0.2-0.7,0.7v0.6c0,0.5,0.2,0.7,0.7,0.7h4c1,0,2-0.1,2.9-0.1c0.7,0,0.6,0.3,0.6,1.2
		c0,0.9,0,1.2-0.6,1.2c-1,0-2-0.1-2.9-0.1h-11.8c-1,0-2,0.1-3,0.1c-0.6,0-0.6-0.3-0.6-1.2c0-0.9,0-1.2,0.6-1.2c1,0,2,0.1,3,0.1h3.6
		c0.5,0,0.7-0.2,0.7-0.7v-0.6c0-0.5-0.2-0.7-0.7-0.7H108c-0.9,0-1.9,0.1-2.8,0.1c-0.6,0-0.6-0.3-0.6-1.1c0-0.8,0-1.1,0.6-1.1
		c0.9,0,1.8,0.1,2.8,0.1h0.6c0.5,0,0.7-0.2,0.7-0.7v-0.4c0-0.5-0.2-0.7-0.7-0.7h-2.4c-0.6,0-0.7,0.1-1,0.6
		C104.8,333.3,104.2,334.5,103.6,335.2z M110.3,324.6c0.6,0,0.8-0.1,1.1-0.6c0.3-0.6,0.6-1.3,0.8-1.9c0-0.1,0-0.1,0-0.2
		c0-0.3-0.3-0.5-0.6-0.5h-5.6c-0.2,0-0.5,0.1-0.5,0.4c0,0.1,0,0.2,0.1,0.2c0.2,0.3,0.8,1.6,0.8,1.9c0,0.3-0.2,0.4-0.4,0.5
		c0,0-0.1,0.1-0.1,0.1c0,0.1,0.1,0.1,0.1,0.1H110.3z"/>
	<path d="M143,334.5c-0.5,0-0.7,0.2-0.7,0.7v1c0,0.6,0.1,1.3,0.1,1.9c0,0.7-0.2,1.5-0.8,1.9c-0.9,0.7-2.9,0.7-4,0.7
		c-0.7,0-1.2,0-1.5-0.4c-0.2-0.3-0.3-1.1-0.3-1.5c0-0.5,0.2-0.7,0.7-0.7c0.4,0,0.9,0.1,1.4,0.1c1.8,0,1.8-0.4,1.8-1.9v-1.1
		c0-0.5-0.2-0.7-0.7-0.7h-5.5c-1.1,0-2.1,0.1-3.2,0.1c-0.6,0-0.6-0.3-0.6-1.2c0-0.9,0-1.2,0.6-1.2c1.1,0,2.1,0.1,3.2,0.1h5.5
		c0.5,0,0.7-0.2,0.7-0.7c0-0.2-0.1-0.8-0.1-0.9c0-0.3,0.2-0.4,0.5-0.4c0.2,0,0.3,0,0.5,0h0.1c0.4,0,0.6-0.1,0.9-0.3
		c0.2-0.2,1.4-1.1,1.4-1.3c0-0.2-0.4-0.2-0.7-0.2h-4.7c-0.9,0-1.8,0.1-2.8,0.1c-0.6,0-0.6-0.3-0.6-1.2c0-0.9,0-1.2,0.6-1.2
		c0.9,0,1.8,0.1,2.8,0.1h5.8c0.7,0,1.5-0.1,2.2-0.1c0.6,0,0.7,0.2,1.1,0.6c0.2,0.2,0.6,0.7,0.6,1c0,0.9-3.9,3.7-4.8,4.2
		c-0.1,0.1-0.1,0.1-0.1,0.2c0,0.1,0.1,0.1,0.2,0.1h5.8c1.1,0,2.2-0.1,3.2-0.1c0.6,0,0.6,0.3,0.6,1.2c0,0.9,0,1.2-0.6,1.2
		c-1.1,0-2.2-0.1-3.2-0.1H143z M150.2,322.1c0.8,0,1.4,0.1,1.4,1c0,0.5-0.1,1.1-0.1,1.7v1c0,0.4,0.1,0.8,0.1,1.3
		c0,0.7-0.4,0.7-1.4,0.7c-1,0-1.4,0-1.4-0.7c0-0.4,0.1-0.8,0.1-1.3v-0.7c0-0.5-0.2-0.7-0.7-0.7h-14.8c-0.5,0-0.7,0.2-0.7,0.7v0.7
		c0,0.4,0.1,0.9,0.1,1.3c0,0.7-0.4,0.7-1.4,0.7c-1,0-1.4,0-1.4-0.7c0-0.4,0.1-0.8,0.1-1.2v-1c0-0.6,0-1.2,0-1.7c0-1,0.6-1.1,1.4-1.1
		c0.5,0,1,0,1.6,0c0.2,0,0.4-0.1,0.4-0.3c0-0.1,0-0.2-0.1-0.2c-0.4-0.7-1-1.6-1.5-2.2c-0.1-0.1-0.2-0.3-0.2-0.5
		c0-0.5,1.3-1.2,1.8-1.2c0.4,0,0.7,0.4,1.5,1.6c0.2,0.3,1,1.4,1,1.8c0,0.4-0.5,0.7-0.8,0.9c-0.1,0.1-0.1,0.1-0.1,0.2
		c0,0.1,0.1,0.1,0.2,0.1h8.2c0.5,0,0.8-0.1,1.2-0.5c1-1.2,1.8-2.5,2.6-3.9c0.1-0.2,0.2-0.3,0.4-0.3c0.3,0,1.9,0.7,2.3,0.9
		c0.2,0.1,0.4,0.2,0.4,0.4c0,0.2-0.3,0.3-0.5,0.3c-0.2,0.1-0.4,0.1-0.5,0.4c-0.5,0.7-0.9,1.5-1.4,2.2c-0.1,0.1-0.1,0.1-0.1,0.2
		c0,0.2,0.2,0.3,0.3,0.3C148.7,322.1,149.5,322.1,150.2,322.1z M140.3,321.8c-0.3,0-0.5-0.2-0.6-0.5c-0.5-0.9-1.1-1.9-1.7-2.7
		c-0.1-0.2-0.2-0.3-0.2-0.5c0-0.6,1.3-1.2,1.8-1.2c0.5,0,0.9,0.7,1.6,1.8c0,0.1,0.1,0.1,0.2,0.2c0.3,0.5,0.7,1.2,0.7,1.5
		C142.2,321.1,140.8,321.8,140.3,321.8z"/>
	<path d="M179.8,319.6c0.9,0,1.9,0,2.9,0c0.7,0,1.4,0.2,1.4,1.1c0,0.3-0.1,0.8-0.1,1.4v1.4c0,0.3,0.1,0.8,0.1,1.1
		c0,0.6-0.4,0.6-1.4,0.6c-1,0-1.4,0-1.4-0.6c0-0.3,0.1-0.8,0.1-1.1v-0.6c0-0.5-0.2-0.7-0.7-0.7h-15.5c-0.5,0-0.7,0.2-0.7,0.7v0.6
		c0,0.3,0.1,0.8,0.1,1.1c0,0.6-0.5,0.6-1.4,0.6c-0.9,0-1.3,0-1.3-0.6c0-0.3,0.1-0.7,0.1-1.1V322c0-0.6,0-1.1,0-1.4
		c0-0.9,0.7-1.1,2-1.1c0.6,0,1.4,0.1,2.3,0.1h4.7c0.5,0,0.7-0.2,0.7-0.7c0-0.5,0-1-0.1-1.4c0-0.1,0-0.2,0-0.2c0-0.3,0.3-0.3,0.5-0.3
		c0.5,0,1.8,0.1,2.4,0.2c0.2,0,0.7,0,0.7,0.3c0,0.2-0.1,0.2-0.3,0.3c-0.3,0.2-0.3,0.5-0.3,1.2c0,0.5,0.2,0.7,0.7,0.7H179.8z
		 M169,339.6c-0.4,0-0.6,0.2-0.6,0.6c0,0.8-0.2,0.8-1.5,0.8c-1,0-1.4,0-1.4-0.7c0-1.2,0.1-2.4,0.1-3.5v-9.5c0-0.8-0.1-1.4-0.1-2
		c0-1,0.5-1.2,1.4-1.2c0.7,0,1.4,0.1,2.1,0.1h7.3c0.7,0,1.4-0.1,2.1-0.1c0.9,0,1.4,0.2,1.4,1.2c0,0.7-0.1,1.3-0.1,2v1.7
		c0,0.6,0.1,1.2,0.1,1.7c0,0.7-0.3,0.7-1.6,0.7c-0.8,0-1.1,0-1.3-0.3c-0.2-0.3-0.3-0.3-0.9-0.3h-7c-0.5,0-0.7,0.2-0.7,0.7v0.5
		c0,0.5,0.2,0.7,0.7,0.7h8.4c0.7,0,1.4-0.1,2.1-0.1c0.9,0,1.4,0.2,1.4,1.2c0,0.6-0.1,1.3-0.1,2v2.2c0,0.9,0.1,1.8,0.1,2.7
		c0,0.6-0.3,0.6-1.4,0.6c-1.1,0-1.4,0-1.4-0.6v-0.3c0-0.4-0.2-0.6-0.6-0.6H169z M169,326.2c-0.5,0-0.7,0.3-0.7,0.7v0.6
		c0.1,0.5,0.3,0.7,0.7,0.7h7.2c0.5-0.1,0.7-0.3,0.7-0.7v-0.6c-0.1-0.5-0.3-0.7-0.7-0.7H169z M178.2,335.5c0-0.5-0.2-0.7-0.7-0.7H169
		c-0.5,0-0.7,0.2-0.7,0.7v1.1c0,0.5,0.2,0.7,0.7,0.7h8.4c0.5,0,0.7-0.2,0.7-0.7V335.5z"/>
	<path d="M195.3,329.2c-0.5,0-0.9,0.1-1.4,0.1c-0.6,0-0.6-0.4-0.6-1.3c0-1,0-1.3,0.6-1.3c0.4,0,0.9,0.1,1.3,0.1h0.9
		c0.5,0,1.1-0.1,1.6-0.1c0.9,0,1.5,0.3,1.5,1.3c0,0.7,0,1.5,0,2.2v3.9c0,1.7,0.4,2.8,2.1,3.3c1.7,0.5,5.9,0.5,7.8,0.5
		c2.1,0,4.3-0.1,6.4-0.1c0.2,0,0.5,0,0.7,0c0.5,0,0.5,0.3,0.5,0.7c0,1.7-0.5,1.8-1.6,1.8h-7c-2.1,0-6.1,0-8-0.7
		c-1-0.4-1.5-0.8-2.1-1.7c-0.1-0.2-0.3-0.3-0.5-0.3c-0.2,0-0.2,0-0.4,0.1c-0.7,0.6-1.5,1.2-2.2,1.8c-0.3,0.2-0.4,0.3-0.4,0.6
		c0,0.2-0.2,0.3-0.3,0.3c-0.3,0-0.4-0.4-1-1.4c-0.2-0.4-0.6-0.9-0.6-1.4c0-0.3,0.2-0.4,0.7-0.6c0.1-0.1,0.3-0.1,0.4-0.2
		c0.3-0.1,1.7-1.1,2.1-1.3c0.5-0.3,0.6-0.6,0.6-1.1v-4.5c0-0.5-0.2-0.7-0.7-0.7H195.3z M198.1,323.3c-0.2,0-0.4-0.2-0.5-0.4
		c-1.1-1.3-2.3-2.6-3.6-3.7c-0.1-0.1-0.3-0.3-0.3-0.5c0-0.4,1.2-1.5,1.6-1.5c0.2,0,0.4,0.2,0.7,0.4c0.6,0.5,1.3,1.3,1.9,1.8
		c0.4,0.4,2,2,2,2.4C199.8,322.4,198.6,323.3,198.1,323.3z M206.4,322.5c0.5,0,0.6-0.2,0.6-0.6v-0.1c0-0.5-0.2-0.6-0.6-0.6h-2.6
		c-0.9,0-1.9,0.1-2.8,0.1c-0.6,0-0.6-0.3-0.6-1c0-0.7,0-1,0.6-1c0.9,0,1.9,0.1,2.8,0.1h2.5c0.5,0,0.7-0.2,0.7-0.7
		c0-0.4,0-0.8-0.1-1.2c0-0.1,0-0.2,0-0.3c0-0.3,0.2-0.3,0.5-0.3c0.5,0,1.6,0.1,2.2,0.1c0.2,0,0.7,0,0.7,0.3c0,0.2-0.1,0.2-0.3,0.4
		c-0.3,0.2-0.3,0.5-0.3,0.9c0,0.5,0.2,0.7,0.7,0.7h2.8c0.9,0,1.9-0.1,2.8-0.1c0.6,0,0.6,0.3,0.6,1c0,0.7,0,1-0.5,1
		c-0.9,0-1.9-0.1-2.8-0.1h-2.9c-0.4,0-0.6,0.2-0.6,0.6v0.1c0,0.5,0.2,0.6,0.6,0.6h1.8c0.6,0,1.2,0,1.8,0c0.8,0,1.2,0.2,1.2,1
		c0,0.5,0,0.9,0,1.4v3.3c0,0.5,0,0.9,0,1.4c0,0.8-0.4,1-1.2,1c-0.6,0-1.2-0.1-1.9-0.1h-1.8c-0.4,0-0.6,0.2-0.6,0.6v0.1
		c0,0.5,0.2,0.6,0.6,0.6h3.3c0.9,0,1.8-0.1,2.7-0.1c0.6,0,0.6,0.3,0.6,1c0,0.7,0,1-0.6,1c-0.9,0-1.8-0.1-2.7-0.1h-3.2
		c-0.5,0-0.7,0.2-0.7,0.7c0,0.6,0,1.2,0,1.7c0,0.8-0.3,0.8-1.3,0.8c-1.1,0-1.4,0-1.4-0.8c0-0.6,0.1-1.2,0-1.7c0-0.5-0.2-0.7-0.7-0.7
		h-3c-0.9,0-1.8,0.1-2.7,0.1c-0.6,0-0.6-0.3-0.6-1c0-0.6,0-1,0.6-1c0.9,0,1.8,0.1,2.7,0.1h3.1c0.5,0,0.6-0.2,0.6-0.6v-0.1
		c0-0.4-0.2-0.6-0.6-0.6h-1.7c-0.6,0-1.2,0.1-1.8,0.1c-0.7,0-1.2-0.2-1.2-1c0-0.5,0.1-0.9,0.1-1.4v-3.3c0-0.5-0.1-0.9-0.1-1.4
		c0-0.9,0.5-1,1.2-1c0.6,0,1.2,0,1.8,0H206.4z M207,324.9c0-0.4-0.3-0.6-0.6-0.6h-1.6c-0.4,0-0.6,0.3-0.6,0.6v0.1
		c0,0.4,0.3,0.6,0.6,0.6h1.6c0.4,0,0.6-0.3,0.6-0.6V324.9z M204.8,327.3c-0.4,0-0.6,0.3-0.6,0.6v0.2c0,0.4,0.3,0.6,0.6,0.6h1.6
		c0.4,0,0.6-0.2,0.6-0.6v-0.2c0-0.4-0.3-0.6-0.6-0.6H204.8z M211.9,325.7c0.4,0,0.6-0.3,0.6-0.6v-0.1c0-0.4-0.3-0.6-0.6-0.6h-1.6
		c-0.4,0-0.6,0.3-0.6,0.6v0.1c0,0.4,0.2,0.6,0.6,0.6H211.9z M209.6,328.1c0,0.4,0.2,0.6,0.6,0.6h1.6c0.4,0,0.6-0.2,0.6-0.6v-0.2
		c0-0.4-0.3-0.6-0.6-0.6h-1.6c-0.4,0-0.6,0.3-0.6,0.6V328.1z"/>
	<path d="M235.4,325.3c0-0.1-0.1-0.3-0.2-0.3c-0.1,0-0.1,0-0.2,0.1c-0.1,0.1-0.2,0.3-0.4,0.3c-0.4,0-1.5-0.8-1.8-1.1
		c-0.1-0.1-0.2-0.2-0.3-0.2c-0.3,0-0.6,0-0.9-0.1c-0.5,0.1-0.7,0.2-0.7,0.7v2.7c0,0.1,0,0.5,0.4,0.5c0.1,0,0.1,0,0.2-0.1
		c0.1,0,0.3-0.1,0.5-0.2c0.4-0.2,0.9-0.4,1-0.4c0.6,0,0.6,1.1,0.6,1.5c0,0.9-0.3,1-2.1,1.8c-0.5,0.2-0.6,0.5-0.6,1v4.6
		c0,0.6,0.1,1.2,0.1,1.8c0,2.4-1.7,2.7-3.7,2.7c-0.8,0-1.4,0.1-1.4-2c0-0.4,0.1-0.8,0.5-0.8c0.2,0,0.6,0.1,0.9,0.1
		c1.1,0,1.1-0.3,1.1-1.7v-3.7c0-0.3-0.1-0.5-0.5-0.5c-0.1,0-0.1,0-0.2,0c-0.4,0.1-0.6,0.2-0.8,0.3c-0.3,0.1-0.3,0.2-0.4,0.5
		c-0.1,0.2-0.2,0.3-0.3,0.3c-0.2,0-0.3-0.2-0.4-0.5c-0.1-0.4-0.7-2-0.7-2.3c0-0.2,0.1-0.2,0.9-0.5c0.4-0.1,1-0.3,1.8-0.6
		c0.5-0.2,0.6-0.4,0.6-0.9v-3.7c0-0.5-0.2-0.7-0.7-0.7c-0.5,0-1.1,0.1-1.5,0.1c-0.6,0-0.6-0.4-0.6-1.3c0-0.9,0-1.3,0.6-1.3
		c0.4,0,1,0.1,1.5,0.1c0.5,0,0.7-0.2,0.7-0.7v-0.1c0-0.7,0-1.9,0-2.6c0-0.2-0.1-0.7-0.1-0.9c0-0.3,0.1-0.4,0.4-0.4
		c0.5,0,1.7,0.1,2.2,0.1c0.2,0,0.7,0,0.7,0.3c0,0.2-0.2,0.3-0.3,0.4c-0.3,0.2-0.3,0.6-0.3,1.4v1.7c0,0.5,0.2,0.7,0.7,0.7
		c0.4,0,1-0.1,1.3-0.1c0.6,0,0.5,0.4,0.6,0.8c0,0.1,0.1,0.2,0.1,0.2c0.1,0,0.1-0.1,0.2-0.1c1-1.4,2.1-3.4,2.6-5.1
		c0.1-0.2,0.1-0.5,0.4-0.5c0.2,0,1.3,0.3,1.5,0.4c0.1,0,0.2,0.1,0.3,0.1c0.5,0.2,0.9,0.3,0.9,0.5c0,0.2-0.2,0.3-0.3,0.3
		c-0.3,0.1-0.3,0.1-0.5,0.6c0,0.1-0.1,0.1-0.1,0.2c0,0.4,0.4,0.4,0.5,0.5h1.3c0.6,0,0.8-0.1,1-0.6c0.2-0.5,0.4-1.1,0.6-1.6
		c0.1-0.2,0.1-0.4,0.3-0.4c0.1,0,0.4,0.1,0.5,0.1c0.3,0.1,1.8,0.6,2,0.7c0.1,0.1,0.3,0.1,0.3,0.3c0,0.2-0.2,0.2-0.3,0.3
		c-0.2,0.1-0.4,0.1-0.5,0.3c-0.1,0.1-0.1,0.1-0.1,0.2c0,0.1-0.1,0.1-0.1,0.2c0,0.3,0.2,0.4,0.5,0.4h1.1c0.9,0,1.8-0.1,2.7-0.1
		c0.5,0,0.5,0.2,0.5,0.9c0,0.7,0,1-0.5,1c-0.9,0-1.8-0.1-2.7-0.1H244c-0.4,0-0.5,0.1-0.5,0.5v0.2c0,0.3,0.1,0.5,0.5,0.5h0.7
		c0.9,0,1.8-0.1,2.7-0.1c0.5,0,0.5,0.2,0.5,0.8c0,0.6,0,0.8-0.5,0.8c-0.9,0-1.8-0.1-2.7-0.1H244c-0.4,0-0.5,0.1-0.5,0.5v0.1
		c0,0.4,0.1,0.5,0.5,0.5h0.8c0.9,0,1.7,0,2.6,0c0.5,0,0.5,0.2,0.5,0.8c0,0.6,0,0.9-0.5,0.9c-0.9,0-1.8-0.1-2.6-0.1H244
		c-0.4,0-0.5,0.1-0.5,0.5v0.3c0,0.3,0.1,0.5,0.5,0.5h2.2c0.8,0,1.6,0,2.4,0c0.6,0,0.6,0.2,0.6,0.9c0,0.7,0,0.9-0.6,0.9
		c-0.8,0-1.6,0-2.4,0h-7.5c-0.6,0-1.3,0-2,0c-0.7,0-1.4-0.1-1.4-1c0-0.4,0.1-1,0.1-1.6V325.3z M237.2,333.6c0-0.4-0.3-0.5-0.6-0.5
		c-0.7,0-1.5,0.1-2,0.1c-0.6,0-0.6-0.3-0.6-1.2c0-0.9,0-1.2,0.6-1.2c0.5,0,1.4,0.1,2.4,0.1h4.9c0.7,0,1.5,0,2.2,0
		c0.5,0,1.2,0.1,1.2,0.8c0,0.2-0.1,0.9-0.2,1.1c0,0.1,0,0.1,0,0.2c0,0.4,0.3,0.5,0.6,0.5h0.2c0.5,0,1.1,0,1.6,0c0.7,0,1,0.4,1,1.1
		c0,1.2-0.7,3.9-1.3,5c-0.9,1.6-2.7,1.5-4.3,1.5c-1.5,0-1.7-0.1-1.8-0.6c-0.1-0.4-0.2-0.8-0.2-1.3c0-0.4,0-0.7,0.5-0.7
		c0.1,0,0.4,0,0.5,0.1c0.3,0,0.7,0.1,1,0.1c0.5,0,1.3,0,1.8-0.3c0.5-0.3,0.9-1.6,0.9-2.2c0-0.4-0.2-0.3-0.6-0.3h-0.3
		c-0.3,0-0.5,0.2-0.7,0.5c-0.1,0.1-0.3,0.2-0.4,0.2c-0.4,0-1.1-0.1-1.5-0.1c-0.2-0.1-0.5-0.2-0.5-0.5c0-0.1,0.1-0.5,0.2-0.6
		c0.1-0.3,0.4-1.3,0.4-1.6c0-0.4-0.4-0.3-0.7-0.3h-0.8c-0.5,0-0.7,0.2-0.9,0.7c-0.7,2.8-1.9,4.8-4.3,6.5c-0.3,0.2-0.8,0.5-1.2,0.5
		c-0.7,0-1.6-1.3-1.6-1.7c0-0.2,0.2-0.3,0.4-0.4c2.1-1.1,3.4-2.5,4.1-4.8C237.2,333.7,237.2,333.6,237.2,333.6z M237.9,321.9
		c0,0.3,0.2,0.5,0.5,0.5h2c0.3,0,0.5-0.2,0.5-0.5v-0.2c0-0.3-0.2-0.5-0.5-0.5h-2c-0.3,0-0.5,0.2-0.5,0.5V321.9z M240.4,325.1
		c0.3,0,0.5-0.2,0.5-0.5v-0.1c0-0.3-0.2-0.5-0.5-0.5h-2c-0.3,0-0.5,0.2-0.5,0.5v0.1c0,0.3,0.2,0.5,0.5,0.5H240.4z M240.9,327.2
		c0-0.3-0.2-0.5-0.5-0.5h-2c-0.3,0-0.5,0.2-0.5,0.5v0.3c0,0.3,0.2,0.5,0.5,0.5h2c0.3,0,0.5-0.2,0.5-0.5V327.2z"/>
	<path d="M265.8,330.7c-0.1,0-0.2,0.1-0.2,0.2c-0.1,0.3-0.3,0.8-0.7,0.8c-0.3,0-1.6-1-1.6-1.6c0-0.1,0-0.3-0.2-0.3c0,0-0.1,0-0.1,0
		l-0.2,0.1c-0.3,0.2-0.4,0.3-0.4,0.7v5.4c0,0.5,0,1.1,0,1.7c0,0.7,0,1.5-0.6,2c-0.7,0.7-1.9,0.8-2.8,0.8c-0.9,0-1.4,0.1-1.4-2
		c0-0.3,0-0.8,0.5-0.8c0.2,0,0.5,0.1,0.9,0.1c1,0,0.9-0.6,0.9-1.8v-3.9c0-0.1,0-0.5-0.4-0.5c-0.1,0-0.2,0.1-0.2,0.1
		c-0.4,0.2-0.5,0.2-0.5,0.5c0,0.2-0.2,0.3-0.3,0.3c-0.2,0-0.2-0.2-0.5-0.9c-0.1-0.2-0.5-1.6-0.5-1.7c0-0.2,0.1-0.3,0.7-0.5
		c0.3-0.1,0.7-0.3,1.2-0.5c0.5-0.3,0.6-0.5,0.6-1v-3.4c0-0.5-0.2-0.7-0.7-0.7c-0.2,0-0.7,0.1-0.9,0.1c-0.6,0-0.6-0.4-0.6-1.3
		c0-0.9,0-1.3,0.6-1.3c0.2,0,0.7,0,0.9,0.1c0.5,0,0.7-0.2,0.7-0.7v-1.2c0-0.7,0-1.4-0.1-2c0-0.1,0-0.2,0-0.2c0-0.3,0.2-0.4,0.5-0.4
		c0.4,0,1.7,0.1,2.1,0.1c0.2,0,0.6,0,0.6,0.4c0,0.2-0.1,0.2-0.3,0.4c-0.2,0.2-0.3,0.6-0.3,1.3c0,0.4,0,0.9,0,1.5v0.2
		c0,0.5,0.2,0.7,0.7,0.7c0.2,0,0.5,0,0.8,0c0.6,0,0.6,0.4,0.6,1.3c0,0.9,0,1.3-0.6,1.3c-0.3,0-0.5,0-0.8-0.1c-0.5,0-0.7,0.2-0.7,0.7
		v2.2c0,0.2,0.1,0.4,0.3,0.4c0.1,0,0.1,0,0.2-0.1c0.1-0.1,0.4-0.3,0.6-0.3c0.3,0,0.4,0.5,0.5,0.7c0,0.1,0.1,0.1,0.1,0.1
		c0.1,0,0.1,0,0.1-0.1c0.9-2.6,2-7.7,2.1-10.4c0-0.2,0.1-0.4,0.3-0.4c0.2,0,1.5,0.2,1.8,0.3c0.3,0.1,0.8,0.1,0.8,0.4
		c0,0.2-0.2,0.3-0.3,0.3c-0.3,0.1-0.3,0.2-0.4,1.1c-0.1,0.4-0.1,0.9-0.2,1.7v0.2c0,0.4,0.3,0.5,0.6,0.5h1.7c1,0,1.1,0.9,1.1,1.7
		c0,2.9-0.7,7-1.7,9.6c-0.1,0.2-0.1,0.3-0.1,0.5c0,0.3,0.1,0.5,0.3,0.7c2.6,2.8,6.6,3.7,10.2,4c0.6,0.1,0.9,0.1,0.9,0.5
		c0,0.4-0.1,0.9-0.3,1.2c-0.3,0.7-0.4,0.9-0.9,0.9c-1.6,0-4.3-0.7-5.8-1.2c-1.8-0.7-3.8-1.7-5.2-3.1c-0.1-0.1-0.2-0.2-0.4-0.2
		c-0.2,0-0.3,0.2-0.4,0.3c-0.9,1.5-1.8,2.7-3.1,3.9c-0.2,0.2-0.5,0.5-0.8,0.5c-0.5,0-1.6-1.1-1.6-1.5c0-0.3,0.3-0.6,0.5-0.8
		c1.3-1.2,2.5-2.9,3.3-4.5c0.1-0.2,0.2-0.4,0.2-0.6c0-0.2-0.1-0.5-0.2-0.6c-0.3-0.6-0.6-1.2-0.8-1.9
		C265.9,330.8,265.9,330.7,265.8,330.7z M268.4,323.7c-0.5,0-0.6,0.1-0.8,0.6c-0.2,0.8-0.4,1.6-0.6,2.4c-0.1,0.2-0.1,0.4-0.1,0.6
		c0,0.2,0,0.3,0.1,0.5c0.2,0.9,0.5,1.5,0.8,2.3c0.1,0.1,0.1,0.2,0.3,0.2c0.1,0,0.2-0.1,0.3-0.2c0.5-1.6,1-4.4,1-6
		c0-0.3-0.2-0.3-0.5-0.3H268.4z M275.6,320.4c-0.5,0-0.6,0.2-0.6,0.6v1.6c0,2.5-0.1,5-0.5,7.4c-0.1,0.7-0.9,4.5-1.6,4.5
		c-0.3,0-1.7-0.6-1.7-1c0-0.2,0.2-0.6,0.3-0.8c1.3-2.9,1.5-7,1.5-10.2v-1.7c0-0.6,0-1.3,0-1.9c0-0.7,0.3-0.9,1-0.9
		c0.4,0,0.9,0,1.3,0h1.2c0.4,0,0.9,0,1.3,0c0.7,0,1,0.2,1,1c0,0.6,0,1.3,0,1.9v10.3c0,0.6,0,0.9,0.4,0.9h0.2c0.3,0,0.4-0.4,0.5-0.7
		c0.1-0.5,0.2-1.8,0.2-2.4c0-0.3,0.1-0.5,0.5-0.5c0.5,0,1.3,0.1,1.3,0.8c0,0.9-0.3,3.2-0.6,4c-0.3,1-0.8,1.2-1.8,1.2h-0.9
		c-1.4,0-1.8-0.7-1.8-2.1c0-0.6,0-1.3,0-1.9V321c0-0.5-0.2-0.6-0.6-0.6H275.6z"/>
	<path d="M294.9,335.7c-0.3,0.1-0.4,0.3-0.7,1c-0.6,1.3-1.3,2.6-2.1,3.7c-0.2,0.2-0.3,0.4-0.6,0.4c-0.5,0-1.9-0.6-1.9-1.3
		c0-0.2,0.2-0.5,0.4-0.7c0.9-1.1,1.8-2.7,2.3-4c0.1-0.4,0.2-0.6,0.5-0.6c0.3,0,1.8,0.5,2.2,0.7c0.2,0.1,0.5,0.2,0.5,0.4
		C295.4,335.6,295.1,335.7,294.9,335.7z M303.2,319.5h5.4c1,0,1.9-0.1,2.9-0.1c0.7,0,0.6,0.3,0.6,1.3c0,1,0,1.3-0.6,1.3
		c-1,0-1.9-0.1-2.9-0.1h-5.4c-0.5,0-0.7,0.2-0.7,0.7v0.6c0,0.5,0.2,0.7,0.7,0.7h3.3c0.7,0,1.5-0.1,2.2-0.1c0.7,0,1.7,0.1,1.7,1.1
		c0,0.5,0,1,0,1.6v4.5c0,0.2,0.1,1.8,0.1,1.8c0,0.6-0.4,0.6-1.4,0.6c-1,0-1.3,0-1.4-0.4c-0.1-0.2-0.1-0.3-0.3-0.3h-11.7
		c-0.2,0-0.3,0.1-0.3,0.3c-0.1,0.4-0.4,0.4-1.4,0.4c-1,0-1.4,0-1.4-0.6c0-0.1,0.1-1.5,0.1-1.8v-4.5c0-0.5,0-1,0-1.5
		c0-1,0.9-1.1,1.7-1.1c0.7,0,1.5,0.1,2.2,0.1h2.4c0.5,0,0.7-0.2,0.7-0.7V319c0-0.5,0-1.1-0.1-1.6c0-0.1,0-0.2,0-0.2
		c0-0.3,0.2-0.4,0.5-0.4c0.3,0,2.1,0.2,2.6,0.2c0.2,0,0.6,0.1,0.6,0.4c0,0.2-0.2,0.3-0.4,0.4c-0.3,0.2-0.3,0.6-0.3,1
		C302.4,319.3,302.7,319.5,303.2,319.5z M306.9,330.5c0.5-0.1,0.7-0.3,0.7-0.7v-2.6c-0.1-0.5-0.3-0.7-0.7-0.7H296
		c-0.5,0.1-0.7,0.3-0.7,0.7v2.6c0.1,0.5,0.3,0.7,0.7,0.7H306.9z M298.3,340.7c-0.8,0-0.7-0.6-0.8-2c-0.1-1-0.2-2.2-0.4-3.2
		c0-0.1-0.1-0.2-0.1-0.3c0-0.6,1.3-0.8,1.8-0.8c0.8,0,0.9,0.3,1.2,2.6c0.1,0.6,0.2,2,0.2,2.6C300.2,340.4,299,340.7,298.3,340.7z
		 M304.5,340.7c-0.8,0-0.7-0.5-1-2c-0.2-0.8-0.6-2.4-0.9-3.2c-0.1-0.1-0.1-0.3-0.1-0.4c0-0.6,1.3-0.9,1.8-0.9c0.6,0,0.8,0.4,1.1,1.5
		c0.4,1.2,0.6,2.4,0.9,3.7c0,0.1,0.1,0.3,0.1,0.4C306.3,340.5,305,340.7,304.5,340.7z M311.3,340.9c-0.4,0-0.6-0.5-0.8-0.8
		c-0.6-1.4-1.4-2.8-2.2-4.1c-0.1-0.2-0.3-0.4-0.3-0.6c0-0.5,1.5-1.1,1.9-1.1c0.2,0,0.4,0.2,0.5,0.3c0.3,0.4,1,1.6,1.3,2.1
		c0.3,0.5,1.4,2.5,1.4,2.9C313.2,340.4,311.8,340.9,311.3,340.9z"/>
	<path d="M335.1,327.7c0,0.3,0.1,0.6,0.5,0.6c0.1,0,0.2,0,0.2,0l0.5-0.1c0.5-0.2,0.7-0.4,0.7-0.9v-1.3c0-0.6,0-1.2-0.1-1.7
		c0-0.1,0-0.2,0-0.3c0-0.3,0.2-0.3,0.5-0.3c0.3,0,1.9,0.1,2.3,0.1c0.2,0,0.5,0.1,0.5,0.3c0,0.2-0.2,0.2-0.3,0.3
		c-0.3,0.2-0.3,0.6-0.3,1.4v0.7c0,0.3,0.1,0.6,0.5,0.6c0.1,0,0.1,0,0.2,0l0.7-0.2c0.5-0.1,1.3-0.5,1.8-0.5c0.4,0,1.3,0.3,1.3,1.4
		c0,0.9-0.1,4.6-0.2,5.4c-0.2,1.7-1.2,2.2-2.8,2.2c-0.6,0-1.2,0-1.2-1.8c0-0.2,0-0.7,0.3-0.7c0.1,0,0.3,0.1,0.6,0.1
		c0.6,0,0.9,0.1,0.9-3.1c0-0.3,0-0.6-0.4-0.6c-0.2,0-0.7,0.1-1,0.2c-0.5,0.1-0.7,0.4-0.7,0.9v2.1c0,1,0.1,2.1,0.1,3.1
		c0,0.8-0.3,0.8-1.3,0.8c-1,0-1.3,0-1.3-0.8c0-1,0.1-2.1,0.1-3.1v-1.4c0-0.3-0.1-0.6-0.5-0.6c-0.1,0-0.1,0-0.2,0l-0.5,0.1
		c-0.5,0.2-0.7,0.4-0.7,0.9v4.8c0,1.2,0.1,1.5,1.3,1.5h5c1,0,1.4-0.1,1.7-2c0.1-0.5,0.1-0.7,0.5-0.7c0.4,0,0.9,0.1,1.3,0.2
		c0.4,0.1,0.7,0.2,0.7,0.7c0,0.8-0.7,2.8-1.2,3.5c-0.6,0.7-1.6,0.9-2.5,0.9h-5.2c-2.4,0-4-0.1-4-2.9c0-0.5,0-0.9,0-1.3v-4
		c0-0.3-0.1-0.5-0.4-0.5h-0.1c-0.1,0-0.2,0.1-0.3,0.1c-0.3,0-0.4-0.3-0.5-0.8c-0.1-0.3-0.2-0.9-0.2-1.2c0-0.4,0.4-0.4,1.1-0.6
		c0.4-0.1,0.5-0.3,0.5-0.8V326c0-0.2-0.1-0.2-0.3-0.2c-0.1,0-0.2,0-0.3,0.1c-0.1,0-0.1,0.1-0.2,0.1c-0.5,0-1.8-0.6-1.8-1.2
		c0-0.2,0.3-0.5,0.4-0.7c0.1-0.1,0.1-0.2,0.1-0.2c0-0.2-0.2-0.3-0.4-0.3c-0.6,0-1.2-0.1-1.8-0.1h-2.1c0,0-0.1,0-0.1,0c0,0,0,0,0.1,0
		c0.3,0,0.8,0.1,0.8,0.4c0,0.2-0.2,0.3-0.3,0.4c-0.3,0.2-0.4,0.5-0.4,1.2v0.5c0.1,0.5,0.2,0.7,0.7,0.7h1.1c0.5,0,0.9-0.1,1.3-0.1
		c1.2,0,1.4,0.6,1.4,1.6c0,2.4-0.2,7.2-0.6,9.5c-0.4,2.2-0.9,3.1-3.3,3.1c-1,0-1.6,0-1.6-2.1c0-0.4,0-0.7,0.3-0.7
		c0.2,0,0.7,0.1,1,0.1c0.7,0,0.9-0.4,1-1c0.4-1.7,0.6-5.1,0.6-6.9c0-1-0.1-1-1.1-1h-0.1c-0.5,0-0.7,0.2-0.8,0.7
		c-0.3,3.2-1,7.3-2.5,10.1c-0.1,0.2-0.3,0.6-0.6,0.6c-0.6,0-1.9-1-1.9-1.6c0-0.1,0.1-0.3,0.2-0.3c0.6-1,1.3-3.1,1.6-4.3
		c0.6-2.5,0.9-4.9,0.9-7.4v-0.5c0-0.8,0-1.6-0.1-2.3c-0.1-0.3-0.2-0.6-0.6-0.6c-0.2,0-0.7,0.1-0.9,0.1c-0.6,0-0.6-0.3-0.6-1.3
		c0-1,0-1.3,0.6-1.3c0.7,0,1.4,0.1,2.1,0.1c0.5,0,0.7-0.2,0.7-0.7v-1c0-0.6-0.1-1.2-0.1-1.8c0-0.1,0-0.2,0-0.2
		c0-0.3,0.3-0.4,0.5-0.4c0.4,0,1.7,0.1,2.2,0.2c0.2,0,0.7,0,0.7,0.3c0,0.2-0.2,0.3-0.4,0.4c-0.3,0.2-0.3,0.3-0.3,2.2v0.3
		c0,0.5,0.2,0.7,0.7,0.7c0.7,0,1.5-0.1,2.2-0.1c0.6,0,0.6,0.3,0.6,1.3c0,0.1,0.1,0.2,0.2,0.2c0.1,0,0.1-0.1,0.2-0.1
		c0.8-1.4,1.6-3.1,2-4.7c0.1-0.3,0.1-0.7,0.5-0.7c0.3,0,1.3,0.3,1.6,0.4c0.4,0.1,1,0.2,1,0.6c0,0.2-0.2,0.3-0.4,0.3
		c-0.3,0.1-0.4,0.3-0.6,0.7c0,0.1-0.1,0.3-0.2,0.5c0,0.1,0,0.1,0,0.2c0,0.4,0.4,0.4,0.5,0.5h5.7c1,0,1.9-0.1,2.9-0.1
		c0.6,0,0.6,0.3,0.6,1.3c0,1,0,1.3-0.6,1.3c-1,0-1.9-0.1-2.9-0.1h-6.8c-0.6,0-0.8,0.1-1.1,0.6c-0.2,0.3-0.4,0.7-0.6,1
		c0,0.1-0.1,0.2-0.1,0.3c0,0.2,0.2,0.3,0.4,0.4c0.2,0,0.5,0,0.7,0.1c0.7,0.1,1.2,0.1,1.2,0.4c0,0.2-0.1,0.2-0.3,0.3
		c-0.3,0.2-0.3,0.8-0.3,2V327.7z"/>
	<path d="M357,323.5c-0.8,0-1.6,0.1-2.4,0.1c-0.6,0-0.6-0.4-0.6-1.1s0-1.2,0.6-1.2c0.8,0,1.6,0.1,2.4,0.1h3.9c0.8,0,1.6-0.1,2.4-0.1
		c0.6,0,0.6,0.4,0.6,1.2s0,1.1-0.6,1.1c-0.8,0-1.6-0.1-2.4-0.1H357z M358.4,339.3c-0.6,0-0.7,0.3-0.7,0.7c0,0.6-0.1,0.6-1.3,0.6
		c-1,0-1.3,0-1.3-0.6c0-0.5,0-1,0-1.4v-4.1c0-0.5,0-0.9,0-1.4c0-0.8,0.5-1.1,1.3-1.1c0.5,0,1,0,1.4,0h2.5c0.5,0,0.9,0,1.3,0
		c0.7,0,1.3,0.2,1.3,1.1c0,0.5,0,0.9,0,1.4v3.3c0,0.5,0,1,0,1.6c0,0.6-0.3,0.7-1.2,0.7c-1,0-1.1-0.1-1.2-0.4
		c-0.1-0.4-0.3-0.4-0.6-0.4H358.4z M357.9,330.6c-0.6,0-1.3,0.1-1.9,0.1c-0.6,0-0.6-0.4-0.6-1.1c0-0.7-0.1-1.1,0.6-1.1
		c0.6,0,1.3,0.1,1.9,0.1h2.3c0.6,0,1.3-0.1,1.9-0.1c0.6,0,0.6,0.4,0.6,1.1c0,0.6,0.1,1.1-0.5,1.1c-0.6,0-1.3-0.1-2-0.1H357.9z
		 M357.9,327.1c-0.7,0-1.3,0.1-1.9,0.1c-0.6,0-0.6-0.4-0.6-1.2c0-0.7-0.1-1.1,0.6-1.1c0.6,0,1.2,0.1,1.9,0.1h2.3
		c0.6,0,1.3-0.1,1.9-0.1c0.6,0,0.6,0.5,0.6,1.1c0,0.7,0.1,1.2-0.6,1.2s-1.3-0.1-1.9-0.1H357.9z M358.1,319.9c-0.7,0-1.4,0.1-2.1,0.1
		s-0.6-0.5-0.6-1.2c0-0.8,0-1.2,0.7-1.2c0.7,0,1.3,0.1,2,0.1h1.9c0.7,0,1.3-0.1,2-0.1c0.7,0,0.7,0.4,0.7,1.2c0,0.7,0.1,1.2-0.6,1.2
		c-0.7,0-1.4-0.1-2.1-0.1H358.1z M357.7,336.4c0.1,0.5,0.3,0.7,0.7,0.7h1.2c0.5-0.1,0.7-0.3,0.7-0.7v-1.6c-0.1-0.5-0.3-0.7-0.7-0.7
		h-1.2c-0.5,0-0.7,0.3-0.7,0.7V336.4z M370.2,337.8c-0.2,0-0.4,0.1-0.6,0.2c-1.4,1-2.8,1.8-4.4,2.5c-0.2,0.1-0.7,0.3-1,0.3
		c-0.6,0-1.3-1.4-1.3-1.8c0-0.4,0.4-0.5,0.8-0.6c1.3-0.5,2.9-1.3,4.1-2.1c0.2-0.1,0.3-0.3,0.3-0.5c0-0.2-0.1-0.3-0.2-0.5
		c-0.9-1.1-1.6-2.6-2.1-3.9c-0.1-0.3-0.3-0.5-0.6-0.6c-0.2,0-0.4,0-0.6,0c-0.6,0-0.6-0.3-0.6-1.3c0-1-0.1-1.3,0.6-1.3
		c0.9,0,1.8,0.1,2.7,0.1h4.7c0.8,0,1.6-0.1,2.1-0.1c1,0,1.8,1.1,1.8,1.5c0,0.4-0.4,1.2-0.6,1.6c-0.8,1.6-1.6,2.8-2.8,4.1
		c-0.1,0.2-0.2,0.3-0.2,0.5c0,0.2,0.1,0.3,0.3,0.5c1.3,0.9,2.9,1.4,4.4,1.8c0.3,0.1,0.7,0.2,0.7,0.6s-0.6,1.9-1.3,1.9
		c-0.2,0-0.7-0.2-0.9-0.2c-1.9-0.6-3.2-1.3-4.8-2.4C370.6,337.9,370.5,337.8,370.2,337.8z M367,325.4c-0.3,0.5-1.5,2-2.1,2
		c-0.5,0-1.6-1-1.6-1.5c0-0.3,0.4-0.6,0.6-0.7c1.9-1.7,2-3.3,2-5.7V319c0-1,0.1-1.4,1.2-1.4h3.9c0.3,0,0.7,0,1.1,0
		c1,0,1.1,0.4,1.1,1.3v4.1c0,0.7,0,1.2,0.6,1.2h0.8c0.5,0,0.8-0.2,0.9-2.3c0-0.3,0.1-0.6,0.7-0.6c0.6,0,1.6,0.2,1.6,1
		c0,0.9-0.3,2.1-0.6,2.9c-0.5,1.3-1.2,1.4-2.5,1.4h-2.1c-1.8,0-2-1-2-2.2c0-0.5,0-1,0-1.5v-2.1c0-0.5-0.2-0.7-0.7-0.7h-0.8
		c-0.5,0-0.7,0.2-0.8,0.7C368.3,322.6,368,323.9,367,325.4z M370.2,334c0.2,0,0.3-0.1,0.5-0.2c0.4-0.5,1.8-2.2,1.8-2.7
		c0-0.2-0.2-0.3-0.7-0.3h-2.8c-0.1,0-0.5,0-0.5,0.4c0,0.1,0,0.1,0.1,0.2c0.4,0.9,0.7,1.5,1.3,2.3C369.9,333.9,370,334,370.2,334z"/>
</g>
</svg>
