<?xml version="1.0" encoding="utf-8"?>
<!-- Generator: Adobe Illustrator 27.3.1, SVG Export Plug-In . SVG Version: 6.00 Build 0)  -->
<svg version="1.1" id="レイヤー_1" xmlns="http://www.w3.org/2000/svg" xmlns:xlink="http://www.w3.org/1999/xlink" x="0px"
	 y="0px" viewBox="0 0 378 341" style="enable-background:new 0 0 378 341;" xml:space="preserve">
<style type="text/css">
	.st0{fill:#E84709;}
	.st1{fill:#FFFFFF;}
</style>
<g>
	<path class="st0" d="M55.7,19.6L55.7,19.6L55.7,19.6c-0.4-7-6.4-16.1-14.3-18.1c-8.4-2-17.2-2-25.7,0C7.8,3.5,1.9,12.6,1.4,19.6
		c-1.9,34-1.9,68.2,0,102.2c0.4,7,6.4,16.1,14.3,18.1c8.4,2,17.2,2,25.7,0c7.9-2,13.8-11.1,14.3-18.1C57.6,87.7,57.6,53.6,55.7,19.6
		z M53.2,121.6L53.2,121.6c-0.4,6-5.9,14.2-12.4,15.8c-8,1.9-16.4,1.9-24.5,0c-6.5-1.6-12.1-9.9-12.4-15.8C2,87.7,2,53.7,3.9,19.7
		c0.4-6,5.9-14.2,12.4-15.8C24.3,2,32.7,2,40.8,3.9c6.5,1.6,12,9.8,12.4,15.8C55.1,53.7,55.1,87.7,53.2,121.6z"/>
	<path class="st0" d="M15.1,23L15.1,23c1.7,0.2,3.3,0.4,5,0.4c1.5,0.1,1.2,1.4,1.2,2.6c-0.1,2,0,4.1,0,6.1c0.1,0.9-0.3,1.4-1.4,1.4
		c-1.3,0-2.5,0.1-3.8,0.4c-0.5,0.1-0.7,0.6-0.6,1.1c0.1,0.3,0.3,0.5,0.6,0.6c1.2,0.3,2.4,0.4,3.6,0.4c0.6,0,1.1,0,1.7-0.2v4.2
		c0.2,4.3-1.5,7.5-6.1,7.9c-0.4,0-0.7,0.4-0.6,0.8c0,0.3,0.3,0.6,0.6,0.6c5.1,0.7,8.7-3.1,8.5-8.1v-8.7c0-0.2,0-0.3,0-0.5l0,0.1
		c0-1.3,0-2.7,0-4l0-2c0-1.3,0-2.7-0.9-3.7c-0.8-0.9-2-1.3-3.2-1.2c-1.5,0-3,0.1-4.5,0.3c-0.4,0.1-0.7,0.5-0.7,0.9
		C14.5,22.6,14.7,22.9,15.1,23z"/>
	<path class="st0" d="M26.4,23.3L26.4,23.3c2.2,0.1,4.8,0.1,7.3,0.1c0,2.4,0,4.8,0,7.2c0,0.7,0,1.6,0,2.4c-2.4,0-4.9,0.1-7.3,0.4
		c-0.5,0.1-0.8,0.5-0.7,1c0.1,0.4,0.4,0.7,0.7,0.7c2.3,0.2,4.9,0.3,7.3,0.3c0,3.5,0,7.4,0.1,9.9c0,0.9,0,1.7-1.1,1.9
		c-0.2,0-0.7,0-0.9,0c-1.8,0-3.6,0.1-5.3,0.3c-0.5,0.1-0.8,0.5-0.7,0.9c0,0.4,0.3,0.7,0.7,0.7c1.7,0.2,3.5,0.3,5.3,0.3
		c2.8,0.2,4.7-1.3,4.5-4.2c0-1.4,0-4.9,0.1-6.4c0-1.1,0-2.3,0-3.5c1.1,0,2.8,0,3.3,0c2,0,3.6-1.5,3.7-3.5c0,0,0-0.1,0-0.1v-6.1
		c0-0.3,0-0.9,0-1.2c0,0,0-0.1,0-0.1v0v0c0-1.7-1.2-3.2-2.9-3.5C39.7,21,39.1,21,38.5,21c-3.6,0-8.7,0-12.2,0.1
		c-0.6,0-1.1,0.6-1.1,1.2C25.3,22.9,25.8,23.3,26.4,23.3z M39.3,23.5L39.3,23.5c0.7,0,1.4,0.3,1.4,1.1c0,0.4,0,1,0,1.4v6
		c0.1,0.6-0.4,1.2-1,1.2c-0.4,0-0.8,0.1-1.2,0c-0.8,0-1.6,0-2.4,0c0-3.3,0-6.8,0-9.7C37.3,23.5,38.4,23.5,39.3,23.5z"/>
	<path class="st0" d="M15.2,93.7L15.2,93.7c2.5,0.1,5.1,0.1,7.7,0.1c0.4,0,0.8,0,1.2,0.1c0.2,0,0.4,0.1,0.6,0.2c0,0,0.1,0.1,0,0.5
		c-0.2,1.7-2,1.9-3.4,1.9c-2,0-4.1,0.1-6.1,0.3c-0.5,0.1-0.9,0.5-0.8,1c0,0.4,0.4,0.7,0.8,0.8c2.6,0.2,5.2,0.3,7.8,0.2
		c1.4-0.1,2.6-0.8,3.5-1.9c1.1-1.6,1.1-4.3-0.8-5.2c-0.9-0.4-1.9-0.5-2.8-0.5l-1.5,0c-2,0-4.1,0-6.1,0.1c-0.7,0-1.2,0.5-1.2,1.2
		C14,93.2,14.6,93.7,15.2,93.7z"/>
	<path class="st0" d="M41.7,93.7c0.7,0,1.2-0.6,1.2-1.2c0-0.7-0.6-1.2-1.2-1.2c-2,0-4.1-0.1-6.1,0h-1.5c-1.9-0.1-4,0.4-4.4,2.5
		c-0.3,2.4,1.5,4.6,3.9,4.9c0.1,0,0.2,0,0.3,0c2.6,0.1,5.2,0,7.8-0.3c0.5,0,0.8-0.5,0.8-0.9c0-0.4-0.4-0.8-0.8-0.8
		c-2-0.2-4.1-0.2-6.1-0.3c-1.4,0-3.3-0.2-3.4-1.9c0-0.4,0-0.5,0.1-0.5c0.3-0.3,1.4-0.3,1.8-0.3v0C36.6,93.8,39.2,93.8,41.7,93.7z"/>
	<path class="st0" d="M23.1,103c1.1,0,2.2,0,3.3-0.1c0.7,0,1.2-0.6,1.2-1.2c0-0.6-0.5-1.2-1.2-1.2c-1.9-0.1-4.7-0.1-6.7-0.1
		c-2.9-0.1-5.4,2.1-5.5,5c0,0.1,0,0.2,0,0.3c0,0.2,0,0.6,0,0.9c0,1.9,0.1,3.9,0.1,5.8c0.1,1.9,0.2,4.7,0.3,6.7
		c0,0.4,0.4,0.8,0.8,0.8c0.4,0,0.8-0.4,0.8-0.8c0.1-1.1,0.1-2.2,0.2-3.3c0.1-2.1,0.2-7.8,0.3-9.9c0-0.4,0.1-0.8,0.2-1.2
		c0.5-1.1,1.6-1.7,2.8-1.7L23.1,103z"/>
	<path class="st0" d="M42.9,104.3c-0.7-2.3-2.9-3.9-5.3-3.8l0,0l-3.3,0l-3.3,0c-0.7,0-1.2,0.5-1.2,1.2c0,0.7,0.5,1.2,1.2,1.2l3.3,0
		l3.3,0c1.5-0.1,2.9,1,3,2.6c0,0.1,0,0.2,0,0.3l0.1,6.6c0,2.2,0.1,4.4,0.2,6.7c0,0.5,0.5,1,1,0.9c0.5,0,0.9-0.4,0.9-0.9
		c0.1-3.2,0.2-6.8,0.2-10c0-0.5,0-2,0-2.5C43.1,105.9,43.1,105,42.9,104.3z"/>
	<path class="st0" d="M37.7,106.1c0-0.5-0.4-0.9-0.9-0.9c-0.5,0-0.9,0.4-0.9,0.9l0,0c-0.1,0.7-0.1,1.5-0.1,2.2h-14
		c0-0.7,0-1.5-0.1-2.2c0-0.5-0.5-0.9-1-0.9c-0.5,0-0.9,0.4-0.9,0.9c-0.1,2.1-0.2,4.3-0.2,6.4c0,0.8-0.1,2.4,0,2.9
		c0.2,2.1,2,3.8,4.1,3.7c0.4,0,0.9,0,1.3,0c1.8,0,4.5,0,6.3,0c1.1,0,2.3,0,3.4-0.1c2.1-0.4,3.6-2.4,3.4-4.5
		C37.9,112.3,37.9,108.7,37.7,106.1z M34.1,116.7c-0.1,0-0.3,0-0.4,0c-0.3,0-0.9,0-1.2,0c-2.3,0-5.2,0-7.5,0c-0.3,0-0.9,0-1.2,0
		c-1,0.1-1.8-0.6-1.9-1.6c0-0.1,0-0.3,0-0.4c0-1.3,0-2.6-0.1-3.9h13.8c0,1.3-0.1,2.6-0.1,3.9C35.7,115.6,35.1,116.5,34.1,116.7z"/>
	<path class="st0" d="M42.6,82.4L42.6,82.4c-0.7-0.1-1.3-0.1-2-0.1c-0.6,0-1.4,0-2-0.1c-1.4,0-2.8-0.5-3.9-1.4
		c-1.4-1.4-2.1-3.4-1.9-5.4c0-2.1,0-4.1,0-6.2c2.3,0,4.5,0,6.8,0c0.9,0.1,1.2,0.6,1.1,1.5c-0.2,1.2-1.1,2.2-2.3,2.5
		c-0.7,0.2-1.3,0.4-2,0.4c-0.6,0-1.5,0-1.6,0.9c-0.1,0.5,0.3,0.9,0.8,1c0,0,0,0,0,0c2.5,0.4,5.3-0.2,6.8-2.5c1.3-1.8,1.2-5-1.2-6
		c-0.7-0.3-1.4-0.4-2.2-0.4h0.1c-2.1,0-4.1,0-6.2,0c0-0.6,0-1.2,0-1.8c1,0.1,2,0.1,3,0.1c3.5,0.3,7.3-1.6,7.4-5.6
		c0-2-1.7-3.7-3.8-3.6c-0.1,0-0.3,0-0.4,0l-4.6,0l0.1,0c-1.9-0.2-3.7,1.1-4.1,3c0,0.1,0,0.1,0,0.2c0,0,0,0.1,0,0.1
		c0,0.1,0,0.2-0.1,0.2c0,2.7,0,5.3,0,8c0,2.7,0,5.3,0,8c-0.2,2.7,0.8,5.4,2.8,7.3c1.2,1,2.7,1.6,4.3,1.8c1.7,0.1,3.4,0,5.1-0.1
		c0.5,0,0.9-0.4,0.9-0.9C43.5,82.8,43.1,82.4,42.6,82.4z M32.9,59.5c0-0.7,0.6-1.2,1.3-1.2c0,0,0,0,0,0l0,0c0.4,0,4.9,0,5.2,0
		c0.4,0,0.9,0.2,1.1,0.6c0.1,0.2,0.1,0.3,0.1,0.5c0,2.4-2.7,3.3-4.8,3.1c-1,0-2,0-3,0.1c0-0.9,0-1.8,0-2.8
		C32.9,59.8,32.9,59.6,32.9,59.5z"/>
	<path class="st0" d="M14.5,83.3c-0.4,0.2-0.6,0.7-0.4,1.1c0.2,0.4,0.7,0.6,1.1,0.4l0,0c4.7-1.9,7-6.4,6.7-11.4c0-0.7,0-1.4,0-2
		l3.7,0c0,1.3,0,2.5,0,3.4c0.1,2.9,0.1,6.3-1.8,8.6c-0.3,0.3-0.3,0.8,0,1.1c1.1,1.2,2.5-1.2,2.9-2c1.3-2.4,1.4-5,1.4-7.6l0-9.8
		c0-1.6,0-3.3,0-4.9c0.1-1.1-0.1-2.2-0.7-3.1c-0.8-1-2-1.5-3.2-1.4c-3.3,0-6.5,0-9.8,0.1c-0.6,0-1.2,0.6-1.1,1.2
		c0,0.6,0.5,1.1,1.1,1.1c1.7,0,3.3,0,5,0c0,1.3,0,2.5,0,3.8c-1.6,0-3.1,0-4.6,0.2c-0.6,0.1-1,0.6-0.9,1.2c0.1,0.5,0.4,0.8,0.9,0.9
		c1.5,0.2,3.1,0.2,4.6,0.2c0,1.5,0,3.1,0,4.6c-1.5,0-3.1,0-4.6,0.1c-0.6,0-1.1,0.6-1,1.2c0,0.6,0.5,1,1,1c1.5,0.1,3.1,0.1,4.6,0.1
		v0.3l0,3.6c0,1.1-0.3,2.2-0.7,3.2C18,80.6,16.5,82.3,14.5,83.3z M22,69.1c0-1.5,0-3.1,0-4.6v0c1.2,0,2.5,0,3.7,0c0,1.5,0,3.1,0,4.6
		C24.4,69.1,23.2,69.1,22,69.1z M24.3,58.2L24.3,58.2c1.4,0,1.4,0.9,1.3,2c0,0.5,0,1.1,0,1.7c-1.2,0-2.5,0-3.7,0c0-1.2,0-2.5,0-3.7
		C22.7,58.2,23.5,58.2,24.3,58.2z"/>
</g>
</svg>
