<?xml version="1.0" encoding="utf-8"?>
<!-- Generator: Adobe Illustrator 27.3.1, SVG Export Plug-In . SVG Version: 6.00 Build 0)  -->
<svg version="1.1" id="レイヤー_1" xmlns="http://www.w3.org/2000/svg" xmlns:xlink="http://www.w3.org/1999/xlink" x="0px"
	 y="0px" viewBox="0 0 258 95" style="enable-background:new 0 0 258 95;" xml:space="preserve">
<style type="text/css">
	.st0{fill:#E84709;}
	.st1{fill:#FFFFFF;}
</style>
<g>
	<path class="st0" d="M34.3,12.2L34.3,12.2C34,8,30.3,2.4,25.5,1.2C20.3,0,15,0,9.8,1.2C5,2.4,1.4,8,1.1,12.3
		C-0.1,33-0.1,54,1.1,74.7c0.3,4.3,3.9,9.8,8.7,11c2.6,0.6,5.2,0.9,7.8,0.9c2.6,0,5.2-0.3,7.8-0.9c4.8-1.2,8.5-6.8,8.7-11
		C35.4,54,35.4,33,34.3,12.2z M32.8,74.6c-0.2,3.7-3.6,8.7-7.6,9.7c-4.9,1.2-10,1.2-15,0c-4-1-7.4-6-7.6-9.7C1.4,54,1.4,33,2.6,12.3
		c0.2-3.7,3.6-8.7,7.6-9.7c2.5-0.6,5-0.9,7.5-0.9c2.5,0,5,0.3,7.5,0.9c4,1,7.4,6,7.6,9.7C33.9,33,33.9,54,32.8,74.6z"/>
	<path class="st0" d="M9.4,14.3c1,0.2,2,0.2,3.1,0.3c0.9,0.1,0.7,0.9,0.7,1.6c0,1.2,0,2.5,0,3.7c0,0.6-0.2,0.9-0.8,0.9
		c-0.8,0-1.6,0.1-2.3,0.2c-0.5,0.1-0.5,0.9,0,1c0.7,0.2,1.5,0.2,2.2,0.3c0.4,0,0.7,0,1-0.1c0,1,0,2,0,2.6c0.1,2.6-0.9,4.6-3.7,4.8
		c-0.5,0.1-0.5,0.8,0,0.9c3.1,0.4,5.3-1.9,5.2-4.9v-0.8c0-1,0-3.4,0-4.5c0-0.1,0-0.2,0-0.3l0,0.1c0-0.8,0-1.6,0-2.5c0,0,0-1.2,0-1.2
		c0-0.8,0-1.6-0.6-2.3c-0.5-0.6-1.2-0.8-2-0.7c-0.9,0-1.8,0.1-2.8,0.2C8.9,13.4,8.9,14.2,9.4,14.3z"/>
	<path class="st0" d="M16.3,14.5c1.3,0,2.9,0.1,4.5,0.1c0,1.5,0,3,0,4.4c0,0.4,0,1,0,1.5c-1.5,0-3,0.1-4.5,0.2c-0.6,0.1-0.6,1,0,1.1
		c1.4,0.2,3,0.2,4.5,0.2c0,2.1,0,4.5,0,6.1c0,0.6,0,1.1-0.7,1.1c-0.1,0-0.4,0-0.5,0c-1.1,0-2.2,0.1-3.3,0.2c-0.2,0-0.4,0.2-0.4,0.4
		c0,0.3,0.2,0.5,0.4,0.6c1.1,0.1,2.2,0.2,3.2,0.2c1.7,0.1,2.8-0.8,2.8-2.6c0-0.8,0-3,0-3.9c0-0.7,0-1.4,0-2.2c0.7,0,1.7,0,2,0
		c1.3,0,2.2-0.9,2.2-2.1c0,0,0-0.1,0-0.1v-3.7c0-0.2,0-0.6,0-0.7c0,0,0,0,0-0.1c0,0,0,0,0,0c0,0,0,0,0,0c0-1-0.7-1.9-1.8-2.1
		c-0.3-0.1-0.8-0.1-1.1-0.1c-2.2,0-5.3,0-7.4,0.1C15.5,13.2,15.5,14.5,16.3,14.5z M24.3,14.6c0.4,0,0.8,0.2,0.9,0.7
		c0,0.2,0,0.6,0,0.8v3.7c0,0.4-0.2,0.7-0.6,0.8c-0.2,0-0.6,0-0.8,0c-0.5,0-1,0-1.4,0c0-2,0-4.1,0-5.9C23,14.6,23.7,14.6,24.3,14.6z"
		/>
	<path class="st0" d="M9.5,57.5c1.5,0,3.1,0,4.7,0c0.2,0,0.6,0,0.8,0c0.2,0,0.3,0.1,0.3,0.1c0,0,0.1,0.1,0,0.3
		c-0.1,1-1.2,1.1-2.1,1.1c-1.2,0-2.5,0.1-3.7,0.2c-0.3,0-0.5,0.2-0.5,0.5c0,0.3,0.2,0.6,0.5,0.6c1.6,0.1,3.1,0.2,4.8,0.1
		c0.8-0.1,1.6-0.4,2.1-1.1c0.7-1,0.7-2.6-0.5-3.2C15.4,56,14.8,56,14.2,56l-0.9,0c-1.2,0-2.5,0-3.7,0C8.6,56.1,8.6,57.5,9.5,57.5z"
		/>
	<path class="st0" d="M21,57.6c1.6,0,3.1,0,4.7,0c0.4,0,0.7-0.3,0.7-0.7c0-0.4-0.3-0.8-0.7-0.8c-1.2,0-2.5,0-3.7,0c0,0-0.9,0-0.9,0
		c-1.1-0.1-2.5,0.2-2.7,1.6c-0.2,1.6,1,2.9,2.6,3c1.6,0.1,3.2-0.1,4.8-0.2c0.6-0.1,0.6-1,0-1.1c-1.2-0.1-2.5-0.1-3.7-0.2
		c-0.9,0-2-0.1-2.1-1.1c0-0.3,0-0.3,0-0.3C20.1,57.6,20.8,57.6,21,57.6z"/>
	<path class="st0" d="M14.4,63.2c0.7,0,1.4,0,2,0c0.9-0.1,0.9-1.4,0-1.5c-1.2,0-2.9,0-4.1,0C10.4,61.6,9,63,9,64.9
		c0,0.2,0,0.4,0,0.5c0,1.2,0,2.4,0.1,3.6c0,1.2,0.1,2.9,0.2,4.1c0,0.2,0.2,0.4,0.5,0.5c0.3,0,0.5-0.2,0.5-0.5c0-0.7,0.1-1.4,0.1-2
		c0.1-1.3,0.1-4.7,0.2-6.1c0-0.3,0-0.5,0.1-0.7c0.2-0.7,1-1,1.7-1L14.4,63.2z"/>
	<path class="st0" d="M23.2,61.7l-2,0l-2,0c-0.9,0-0.9,1.4,0,1.5l2,0l2,0c1.1,0,1.9,0.7,1.9,1.8l0.1,4c0,1.4,0.1,2.7,0.1,4.1
		c0,0.3,0.3,0.6,0.6,0.6c0.3,0,0.6-0.2,0.6-0.6c0.1-2,0.1-4.1,0.1-6.1c0-0.3,0-1.2,0-1.5c0-0.5,0-1-0.1-1.5
		C26.1,62.6,24.7,61.6,23.2,61.7z"/>
	<path class="st0" d="M22.1,65.1c0,0.4,0,0.9-0.1,1.3h-8.6c0-0.5,0-0.9-0.1-1.3c0-0.3-0.3-0.5-0.6-0.6c-0.3,0-0.6,0.2-0.6,0.6
		c-0.1,1.3-0.1,2.6-0.1,3.9c0,0.5-0.1,1.4,0,1.8c0.1,1.3,1.2,2.3,2.5,2.3c0.2,0,0.6,0,0.8,0c1.1,0,2.7,0,3.8,0c0.7,0,1.4,0,2.1-0.1
		c1.3-0.2,2.2-1.5,2.1-2.8c0-1.4-0.1-3.6-0.2-5.2C23.2,64.5,22.2,64.5,22.1,65.1z M20.8,71.6c-0.2,0-0.5,0-0.7,0c-1.4,0-3.2,0-4.6,0
		c-0.2,0-0.5,0-0.7,0c-0.8,0-1.2-0.5-1.1-1.2c0-0.8,0-1.6,0-2.4H22c0,0.8,0,1.6-0.1,2.4C22,71.1,21.6,71.6,20.8,71.6z"/>
	<path class="st0" d="M26.3,50.7c-0.4,0-0.8-0.1-1.2-0.1c-0.3,0-0.9,0-1.2-0.1c-0.9,0-1.7-0.3-2.4-0.9c-0.9-0.8-1.2-2.1-1.2-3.3
		c0-1.3,0-2.5,0-3.8c1.4,0,2.8,0,4.1,0c0.5,0.1,0.7,0.4,0.6,0.9c-0.1,0.7-0.7,1.3-1.4,1.6c-0.4,0.2-0.8,0.2-1.3,0.3
		c-0.4,0-0.9,0-1,0.5c0,0.3,0.2,0.6,0.5,0.6c1.5,0.2,3.2-0.1,4.1-1.5c0.8-1.1,0.7-3.1-0.7-3.7c-0.4-0.2-0.8-0.3-1.3-0.2l0.1,0
		c-1.3,0-2.5,0-3.8,0c0-0.4,0-0.7,0-1.1c0.6,0,1.2,0.1,1.8,0.1c2.1,0.2,4.5-1,4.5-3.4c0-1.5-1.4-2.3-2.5-2.2l-2.8,0c0,0,0.1,0,0.1,0
		c-1.3-0.1-2.3,0.7-2.5,1.8c0,0,0,0.1,0,0.1c0,0,0,0,0,0.1c0,0.1,0,0.1,0,0.2c0,1.6,0,3.3,0,4.9c0,1.6,0,3.3,0,4.9
		c-0.1,1.6,0.5,3.4,1.7,4.4c0.7,0.6,1.7,1,2.6,1.1c1.1,0.1,2.1,0,3.1-0.1C26.9,51.7,26.9,50.7,26.3,50.7z M21.2,35.9
		c0.2,0,3,0,3.2,0c0.3,0,0.6,0.1,0.7,0.3c0,0.1,0.1,0.2,0.1,0.3c0,1.5-1.7,2-3,1.9c-0.6,0-1.2,0-1.8,0.1c0-0.6,0-1.1,0-1.7
		c0-0.1,0-0.2,0-0.2C20.4,36.2,20.7,35.9,21.2,35.9z"/>
	<path class="st0" d="M9.5,52.2c2.9-1.1,4.3-3.9,4.1-6.9c0-0.4,0-0.8,0-1.3c0.8,0,1.5,0,2.3,0c0,0.8,0,1.6,0,2.1
		c0.1,1.7,0.1,3.9-1.1,5.2c-0.2,0.2-0.2,0.5,0,0.7c0.7,0.7,1.5-0.8,1.8-1.2c0.8-1.4,0.8-3.1,0.8-4.7l0-6c0-1,0-2,0-3
		c0-0.7,0-1.3-0.5-1.9c-0.5-0.6-1.2-0.9-2-0.9c-2,0-4,0-6,0.1c-0.4,0-0.7,0.3-0.7,0.7c0,0.4,0.3,0.7,0.7,0.7c1,0,2,0,3,0
		c0,0.8,0,1.5,0,2.3c-0.9,0-2,0-2.8,0.1c-0.7,0.1-0.7,1.2,0,1.3c0.8,0.1,1.9,0.1,2.8,0.1c0,0.9,0,1.9,0,2.8c-0.9,0-1.9,0-2.8,0
		c-0.9,0.1-0.9,1.3,0,1.4c0.9,0,1.9,0,2.8,0c0,0.1,0,0.1,0,0.2l0,2.2c0,0.7-0.2,1.3-0.4,2c-0.5,1.3-1.4,2.3-2.7,2.9
		c-0.2,0.1-0.4,0.4-0.3,0.7C8.9,52.2,9.3,52.3,9.5,52.2z M15.1,35.9c0.9,0,0.8,0.6,0.8,1.2c0,0.3,0,0.7,0,1c-0.8,0-1.5,0-2.3,0
		c0-0.8,0-1.5,0-2.3C14.1,35.9,14.6,35.9,15.1,35.9z M13.7,39.7c0.7,0,1.5,0,2.2,0c0,0.9,0,1.9,0,2.8c-0.8,0-1.5,0-2.3,0
		C13.7,41.5,13.7,40.6,13.7,39.7z"/>
</g>
</svg>
