<?xml version="1.0" encoding="utf-8"?>
<!-- Generator: Adobe Illustrator 27.3.1, SVG Export Plug-In . SVG Version: 6.00 Build 0)  -->
<svg version="1.1" id="lay" xmlns="http://www.w3.org/2000/svg" xmlns:xlink="http://www.w3.org/1999/xlink" x="0px" y="0px"
	 viewBox="0 0 3200 150" style="enable-background:new 0 0 3200 150;" xml:space="preserve">
<style type="text/css">
	.st0{fill:#FFFFFF;}
</style>
<g id="グループ_1019" transform="translate(359 2463)">
	<g id="グループ_1018-2" transform="translate(0 0)">
		<path id="パス_1700" class="st0" d="M-356.8-2318.2c-1.2,0-2.2-1-2.2-2.2c0-0.8,0.5-1.6,1.2-2c9.3-4.6,14.1-11.3,14.6-20.3
			v-92.8c-0.5-9-5.2-15.7-14.6-20.3c-1.1-0.5-1.6-1.9-1-3c0.4-0.8,1.2-1.2,2-1.2h62c1.2,0,2.2,1,2.2,2.2c0,0.8-0.5,1.6-1.2,2
			c-9.3,4.6-14.1,11.3-14.5,20.3v92.8c0.5,9,5.2,15.7,14.5,20.3c1.1,0.5,1.6,1.9,1,3c-0.4,0.8-1.2,1.2-2,1.2L-356.8-2318.2z"/>
		<path id="パス_1701" class="st0" d="M-148.5-2318c-0.7,0-1.3-0.3-1.7-0.8l-80.4-95.7v72.2c0.6,8.8,5.3,15.3,14.5,19.9
			c1.1,0.5,1.6,1.9,1,3c-0.4,0.8-1.2,1.2-2,1.2h-43.2c-1.2,0-2.2-1-2.2-2.2c0-0.8,0.5-1.6,1.2-2c9.3-4.6,14-11.2,14.5-20.2v-93
			c-0.5-8.9-5.3-15.6-14.5-20.2c-1.1-0.5-1.6-1.9-1-3c0.4-0.8,1.2-1.2,2-1.2h37.4c0.7,0,1.3,0.3,1.7,0.8l73.5,85.9l-0.4-42.8v-19.4
			c-0.5-9.1-5.3-15.7-14.6-20.3c-1.1-0.6-1.5-1.9-1-3c0.4-0.8,1.1-1.2,2-1.2h42.5c1.2,0,2.2,1,2.2,2.2c0,0.8-0.5,1.6-1.2,2
			c-9.3,4.6-14.1,11.3-14.5,20.3v115.1c0,1.2-1,2.2-2.2,2.2L-148.5-2318"/>
		<path id="パス_1702" class="st0" d="M490.8-2318c-0.7,0-1.3-0.3-1.7-0.8l-80.4-95.7v72.2c0.6,8.8,5.3,15.3,14.5,19.9
			c1.1,0.5,1.6,1.9,1,3c-0.4,0.8-1.2,1.2-2,1.2H379c-1.2,0-2.2-1-2.2-2.2c0-0.8,0.5-1.6,1.2-2c9.3-4.6,14-11.2,14.5-20.2v-93
			c-0.5-8.9-5.3-15.6-14.5-20.2c-1.1-0.5-1.6-1.9-1-3c0.4-0.8,1.2-1.2,2-1.2h37.4c0.7,0,1.3,0.3,1.7,0.8l73.5,85.9l-0.4-42.8v-19.4
			c-0.5-9.1-5.3-15.7-14.6-20.3c-1.1-0.6-1.5-1.9-1-3c0.4-0.8,1.1-1.2,2-1.2h42.5c1.2,0,2.2,1,2.2,2.2c0,0.8-0.5,1.6-1.2,2
			c-9.3,4.6-14.1,11.3-14.5,20.3v115.1c0,1.2-1,2.2-2.2,2.2L490.8-2318"/>
		<path id="パス_1703" class="st0" d="M58.6-2318.3c-1.2,0-2.2-1-2.2-2.2c0-0.8,0.5-1.6,1.2-2c9.3-4.6,14.1-11.3,14.5-20.3v-92.8
			c-0.5-9-5.2-15.7-14.5-20.3c-1.1-0.5-1.6-1.9-1-3c0.4-0.8,1.2-1.2,2-1.2h57c56,0,90.7,25.6,90.7,66.8c0,22.9-9.6,42.1-27.9,55.7
			c-16.8,12.5-40.3,19.4-66,19.4H58.6z M107.1-2341.3c0,7.4,3.7,10.7,12.1,10.7c23.6,0,47.5-17.4,47.5-56.2
			c0-35.3-21.9-60.9-52-60.9h-7.8L107.1-2341.3z"/>
		<path id="パス_1704" class="st0" d="M553.8-2318.2c-1.2,0-2.2-1-2.2-2.2c0-0.8,0.5-1.6,1.2-2c13.9-6.9,14.4-16.6,14.6-20.3
			v-92.8c-0.5-9-5.2-15.7-14.6-20.3c-1.1-0.5-1.6-1.9-1-3c0.4-0.8,1.2-1.2,2-1.2h62c1.2,0,2.2,1,2.2,2.2c0,0.8-0.5,1.6-1.2,2
			c-13.9,6.9-14.4,16.6-14.6,20.3v92.8c0.5,9,5.2,15.7,14.6,20.3c1.1,0.5,1.6,1.9,1,3c-0.4,0.8-1.1,1.2-2,1.2H553.8z"/>
		<path id="パス_1705" class="st0" d="M311.3-2318.2c-1.2,0-2.2-1-2.2-2.2c0-0.8,0.4-1.5,1.1-1.9c0.9-0.5,1.6-1.2,2.1-2
			c1.9-3.2,0.2-8.3-2.7-16.8l-1.6-4.8c-0.2-0.7-0.4-1.4-0.6-2.2l-3.3-9.4h-52.8l-2.6,7.4c-0.2,0.6-0.4,1.2-0.5,1.8l-5.3,15.4
			c-0.9,3-1.6,6.2-0.3,8.4c0.6,1,1.5,1.7,2.6,2.2c1.1,0.5,1.6,1.9,1,3c-0.4,0.8-1.2,1.2-2,1.2h-26.9c-1.2,0-2.2-1-2.2-2.2
			c0-0.7,0.3-1.4,0.9-1.8c4.6-3.4,8.1-11.8,11.3-20.5l42.4-115.9c0.3-0.9,1.2-1.5,2.1-1.5h33.4c1,0,1.8,0.6,2.1,1.5l40.1,115.8
			c4.4,11.8,7.2,17.2,12.6,20.4c1.1,0.6,1.4,2,0.8,3.1c-0.4,0.7-1.1,1.1-1.9,1.1H311.3z M259.6-2381.8l-2.9,8.4l41.9,0l-2.9-8.4
			l-14.7-42.3h-6.1c-0.1,0-0.3,0-0.3,0L259.6-2381.8"/>
		<path id="パス_1706" class="st0" d="M-11.7-2318.2c-1.2,0-2.2-1-2.2-2.2c0-0.8,0.4-1.5,1.1-1.9c0.9-0.5,1.6-1.2,2.1-2
			c1.9-3.2,0.1-8.3-2.7-16.8l-1.6-4.8c-0.2-0.7-0.4-1.5-0.6-2.2l-3.3-9.4h-52.8l-2.6,7.4c-0.2,0.6-0.4,1.2-0.5,1.8l-5.3,15.4
			c-0.9,3-1.6,6.2-0.3,8.4c0.6,1,1.5,1.7,2.6,2.2c1.1,0.6,1.6,1.9,1,3c-0.4,0.8-1.2,1.2-2,1.2h-26.9c-1.2,0-2.2-1-2.2-2.2
			c0-0.7,0.3-1.4,0.9-1.8c4.6-3.4,8.1-11.8,11.3-20.5l42.4-115.9c0.3-0.9,1.2-1.5,2.1-1.5h33.4c1,0,1.8,0.6,2.1,1.5l40.1,115.8
			c4.4,11.8,7.2,17.2,12.6,20.4c1.1,0.6,1.4,2,0.8,3.1c-0.4,0.7-1.1,1.1-1.9,1.1L-11.7-2318.2z M-63.5-2381.8l-2.9,8.4l41.9,0
			l-2.9-8.4l-14.7-42.3h-6.1c-0.1,0-0.3,0-0.3,0L-63.5-2381.8"/>
		<path id="パス_1714" class="st0" d="M728.5-2315.9c-14.6,0-28.7-2.7-39.7-7.7c-0.8-0.4-1.3-1.2-1.3-2v-36.1c0-1,0.7-2,1.8-2.2
			c0.2,0,0.3-0.1,0.5-0.1c0.9,0,1.7,0.5,2,1.3c5.5,11.8,13.8,21.4,23.5,26.9c0.7,0.4,1.3,0.8,2,1.1l0.3,0.2c0.5,0.2,1,0.5,1.5,0.7
			l0.3,0.2c0.3,0.1,0.6,0.3,0.9,0.4c4.2,1.6,8.6,2.4,13.1,2.4c12.6,0,19.8-5.5,19.8-15.1c0-11.7-13.5-18.3-27.8-25.2
			c-19-9.2-40.6-19.6-40.6-44.5c0-30.5,27.6-44.4,53.3-44.4c14,0,26.3,3.3,35.5,6.1c0.9,0.3,1.6,1.2,1.6,2.1v32c0,1.1-0.7,2-1.8,2.2
			c-0.2,0-0.3,0.1-0.5,0.1c-0.9,0-1.7-0.5-2-1.3c-2.2-4.9-5.1-9.6-8.5-13.8c-1.3-1.4-2.7-2.8-4.2-3.9l-0.8-0.6
			c-4.5-3.3-9.5-5.7-14.8-7.2c-1.8-0.5-3.2-0.8-3.5-0.8c-0.4-0.1-0.6-0.1-0.6-0.1c-0.1,0-0.2,0-0.3,0c-1.4-0.2-2.9-0.3-4.3-0.3
			c-10.4,0-20.9,4.7-20.9,15.1c0,11.5,13.5,17.1,27.8,23c19.2,7.9,43.2,17.8,43.2,45.4C784-2330.2,756.1-2315.9,728.5-2315.9"/>
		<path id="パス_1715" class="st0" d="M1118.8-2315.9c-14.6,0-28.7-2.7-39.7-7.7c-0.8-0.4-1.3-1.2-1.3-2v-36.1c0-1,0.7-2,1.8-2.2
			c0.2,0,0.3-0.1,0.5-0.1c0.9,0,1.7,0.5,2,1.3c5.5,11.8,13.8,21.4,23.5,26.9c0.7,0.4,1.3,0.8,2,1.1l0.3,0.2c0.5,0.2,1,0.5,1.5,0.7
			l0.3,0.1c0.3,0.1,0.6,0.3,1,0.4c4.2,1.6,8.6,2.4,13.1,2.4c12.6,0,19.8-5.5,19.8-15.1c0-11.7-13.5-18.3-27.8-25.2
			c-19-9.2-40.6-19.6-40.6-44.5c0-30.5,27.6-44.4,53.3-44.4c14,0,26.3,3.3,35.5,6.1c0.9,0.3,1.6,1.2,1.6,2.1v32c0,1.1-0.7,2-1.8,2.2
			c-0.2,0-0.3,0.1-0.5,0.1c-0.9,0-1.7-0.5-2-1.3c-2.2-4.9-5.1-9.6-8.5-13.8c-1.3-1.4-2.7-2.8-4.2-3.9l-0.8-0.6
			c-4.5-3.3-9.5-5.7-14.8-7.2c-1.8-0.5-3.1-0.8-3.5-0.8c-0.4-0.1-0.6-0.1-0.6-0.1c-0.1,0-0.2,0-0.3,0c-1.4-0.2-2.9-0.3-4.3-0.3
			c-10.4,0-20.9,4.7-20.9,15.1c0,11.5,13.5,17.1,27.8,23c19.2,7.9,43.2,17.8,43.2,45.4C1174.3-2330.2,1146.4-2315.9,1118.8-2315.9"
			/>
		<path id="パス_1716" class="st0" d="M808-2318.2c-1.2,0-2.2-1-2.2-2.2c0-0.8,0.5-1.6,1.2-2c9.3-4.6,14.1-11.3,14.5-20.3v-92.8
			c-0.5-9-5.2-15.7-14.5-20.3c-1.1-0.5-1.6-1.9-1-3c0.4-0.8,1.2-1.2,2-1.2h105c1.2,0,2.2,1,2.2,2.2v25.4c0,1-0.7,1.9-1.7,2.2
			c-0.2,0-0.3,0.1-0.5,0.1c-0.8,0-1.6-0.5-2-1.2c-4.6-9.3-11.2-14-20.2-14.5h-28.7c-6.9,0.4-7.9,3.9-8,6.5c0,0.1,0,0.2-0.1,0.4v43.2
			h27.2c6.7-0.4,11.8-3.7,15.5-10.2c0.4-0.7,1.1-1.1,1.9-1.1c0.2,0,0.4,0,0.6,0.1c1,0.3,1.7,1.1,1.7,2.2v30.5c0,1.2-1,2.2-2.2,2.2
			c-0.8,0-1.5-0.4-1.9-1.1c-3.7-6.5-8.7-9.8-15.5-10.2H854v44.4c0,0.1,0,0.2,0.1,0.4c0.2,2.6,1.1,6.1,8,6.5h28.7
			c8.9-0.5,15.6-5.3,20.2-14.5c0.4-0.8,1.2-1.2,2-1.2c0.2,0,0.3,0,0.5,0.1c1,0.2,1.7,1.1,1.7,2.2v25.4c0,1.2-1,2.2-2.2,2.2
			L808-2318.2z"/>
		<path id="パス_1717" class="st0" d="M940.2-2318.2c-1.2,0-2.2-1-2.2-2.2c0-0.8,0.5-1.6,1.2-2c9.3-4.6,14.1-11.3,14.5-20.3v-92.8
			c-0.5-9-5.2-15.7-14.5-20.3c-1.1-0.5-1.6-1.9-1-3c0.4-0.8,1.2-1.2,2-1.2h105c1.2,0,2.2,1,2.2,2.2v25.4c0,1-0.7,1.9-1.7,2.2
			c-0.2,0-0.3,0.1-0.5,0.1c-0.8,0-1.6-0.5-2-1.2c-4.6-9.3-11.2-14-20.2-14.5h-28.7c-6.9,0.4-7.9,3.9-8,6.5c0,0.1,0,0.2-0.1,0.4v43.2
			h27.2c6.7-0.4,11.8-3.7,15.5-10.2c0.4-0.7,1.1-1.1,1.9-1.1c0.2,0,0.4,0,0.6,0.1c1,0.3,1.7,1.1,1.7,2.2v30.5c0,1.2-1,2.2-2.2,2.2
			c-0.8,0-1.5-0.4-1.9-1.1c-3.7-6.5-8.7-9.8-15.5-10.2h-27.2v44.4c0,0.1,0,0.2,0.1,0.4c0.2,2.6,1.1,6.1,8,6.5h28.7
			c8.9-0.5,15.6-5.3,20.2-14.5c0.4-0.8,1.2-1.2,2-1.2c0.2,0,0.3,0,0.5,0.1c1,0.2,1.7,1.1,1.7,2.2v25.4c0,1.2-1,2.2-2.2,2.2
			L940.2-2318.2z"/>
	</g>
</g>
<g id="グループ_1019_00000079482622520498167510000005692228155928114053_" transform="translate(359 2463)">
	<g id="グループ_1018-2_00000162311651213612380390000006420489219219535542_" transform="translate(0 0)">
		<path id="パス_1700_00000101077293388113736450000000531384284221293750_" class="st0" d="M1243.2-2318.2c-1.2,0-2.2-1-2.2-2.2
			c0-0.8,0.5-1.6,1.2-2c9.3-4.6,14.1-11.3,14.6-20.3v-92.8c-0.5-9-5.2-15.7-14.6-20.3c-1.1-0.5-1.6-1.9-1-3c0.4-0.8,1.2-1.2,2-1.2
			h62c1.2,0,2.2,1,2.2,2.2c0,0.8-0.5,1.6-1.2,2c-9.3,4.6-14.1,11.3-14.5,20.3v92.8c0.5,9,5.2,15.7,14.5,20.3c1.1,0.5,1.6,1.9,1,3
			c-0.4,0.8-1.2,1.2-2,1.2L1243.2-2318.2z"/>
		<path id="パス_1701_00000062151016256058687880000006027477532323078333_" class="st0" d="M1451.5-2318c-0.7,0-1.3-0.3-1.7-0.8
			l-80.4-95.7v72.2c0.6,8.8,5.3,15.3,14.5,19.9c1.1,0.5,1.6,1.9,1,3c-0.4,0.8-1.2,1.2-2,1.2h-43.2c-1.2,0-2.2-1-2.2-2.2
			c0-0.8,0.5-1.6,1.2-2c9.3-4.6,14-11.2,14.5-20.2v-93c-0.5-8.9-5.3-15.6-14.5-20.2c-1.1-0.5-1.6-1.9-1-3c0.4-0.8,1.2-1.2,2-1.2
			h37.4c0.7,0,1.3,0.3,1.7,0.8l73.5,85.9l-0.4-42.8v-19.4c-0.5-9.1-5.3-15.7-14.6-20.3c-1.1-0.6-1.5-1.9-1-3c0.4-0.8,1.1-1.2,2-1.2
			h42.5c1.2,0,2.2,1,2.2,2.2c0,0.8-0.5,1.6-1.2,2c-9.3,4.6-14.1,11.3-14.5,20.3v115.1c0,1.2-1,2.2-2.2,2.2L1451.5-2318"/>
		<path id="パス_1702_00000103955765637231186190000014909155799811296159_" class="st0" d="M2090.8-2318c-0.7,0-1.3-0.3-1.7-0.8
			l-80.4-95.7v72.2c0.6,8.8,5.3,15.3,14.5,19.9c1.1,0.5,1.6,1.9,1,3c-0.4,0.8-1.2,1.2-2,1.2H1979c-1.2,0-2.2-1-2.2-2.2
			c0-0.8,0.5-1.6,1.2-2c9.3-4.6,14-11.2,14.5-20.2v-93c-0.5-8.9-5.3-15.6-14.5-20.2c-1.1-0.5-1.6-1.9-1-3c0.4-0.8,1.2-1.2,2-1.2
			h37.4c0.7,0,1.3,0.3,1.7,0.8l73.5,85.9l-0.4-42.8v-19.4c-0.5-9.1-5.3-15.7-14.6-20.3c-1.1-0.6-1.5-1.9-1-3c0.4-0.8,1.1-1.2,2-1.2
			h42.5c1.2,0,2.2,1,2.2,2.2c0,0.8-0.5,1.6-1.2,2c-9.3,4.6-14.1,11.3-14.5,20.3v115.1c0,1.2-1,2.2-2.2,2.2L2090.8-2318"/>
		<path id="パス_1703_00000150062039012354403330000014124945984750834091_" class="st0" d="M1658.6-2318.3c-1.2,0-2.2-1-2.2-2.2
			c0-0.8,0.5-1.6,1.2-2c9.3-4.6,14.1-11.3,14.5-20.3v-92.8c-0.5-9-5.2-15.7-14.5-20.3c-1.1-0.5-1.6-1.9-1-3c0.4-0.8,1.2-1.2,2-1.2
			h57c56,0,90.7,25.6,90.7,66.8c0,22.9-9.6,42.1-27.9,55.7c-16.8,12.5-40.3,19.4-66,19.4H1658.6z M1707.1-2341.3
			c0,7.4,3.7,10.7,12.1,10.7c23.6,0,47.5-17.4,47.5-56.2c0-35.3-21.9-60.9-52-60.9h-7.8L1707.1-2341.3z"/>
		<path id="パス_1704_00000133531056200643602290000000351222539005431966_" class="st0" d="M2153.8-2318.2c-1.2,0-2.2-1-2.2-2.2
			c0-0.8,0.5-1.6,1.2-2c13.9-6.9,14.4-16.6,14.6-20.3v-92.8c-0.5-9-5.2-15.7-14.6-20.3c-1.1-0.5-1.6-1.9-1-3c0.4-0.8,1.2-1.2,2-1.2
			h62c1.2,0,2.2,1,2.2,2.2c0,0.8-0.5,1.6-1.2,2c-13.9,6.9-14.4,16.6-14.6,20.3v92.8c0.5,9,5.2,15.7,14.6,20.3c1.1,0.5,1.6,1.9,1,3
			c-0.4,0.8-1.1,1.2-2,1.2H2153.8z"/>
		<path id="パス_1705_00000032640263819277007190000003568719159855377056_" class="st0" d="M1911.3-2318.2c-1.2,0-2.2-1-2.2-2.2
			c0-0.8,0.4-1.5,1.1-1.9c0.9-0.5,1.6-1.2,2.1-2c1.9-3.2,0.2-8.3-2.7-16.8l-1.6-4.8c-0.2-0.7-0.4-1.4-0.6-2.2l-3.3-9.4h-52.8
			l-2.6,7.4c-0.2,0.6-0.4,1.2-0.5,1.8l-5.3,15.4c-0.9,3-1.6,6.2-0.3,8.4c0.6,1,1.5,1.7,2.6,2.2c1.1,0.5,1.6,1.9,1,3
			c-0.4,0.8-1.2,1.2-2,1.2h-26.9c-1.2,0-2.2-1-2.2-2.2c0-0.7,0.3-1.4,0.9-1.8c4.6-3.4,8.1-11.8,11.3-20.5l42.4-115.9
			c0.3-0.9,1.2-1.5,2.1-1.5h33.4c1,0,1.8,0.6,2.1,1.5l40.1,115.8c4.4,11.8,7.2,17.2,12.6,20.4c1.1,0.6,1.4,2,0.8,3.1
			c-0.4,0.7-1.1,1.1-1.9,1.1H1911.3z M1859.6-2381.8l-2.9,8.4l41.9,0l-2.9-8.4l-14.7-42.3h-6.1c-0.1,0-0.3,0-0.3,0L1859.6-2381.8"/>
		<path id="パス_1706_00000096771107910079780390000004623756153972281015_" class="st0" d="M1588.3-2318.2c-1.2,0-2.2-1-2.2-2.2
			c0-0.8,0.4-1.5,1.1-1.9c0.9-0.5,1.6-1.2,2.1-2c1.9-3.2,0.1-8.3-2.7-16.8l-1.6-4.8c-0.2-0.7-0.4-1.5-0.6-2.2l-3.3-9.4h-52.8
			l-2.6,7.4c-0.2,0.6-0.4,1.2-0.5,1.8l-5.3,15.4c-0.9,3-1.6,6.2-0.3,8.4c0.6,1,1.5,1.7,2.6,2.2c1.1,0.6,1.6,1.9,1,3
			c-0.4,0.8-1.2,1.2-2,1.2h-26.9c-1.2,0-2.2-1-2.2-2.2c0-0.7,0.3-1.4,0.9-1.8c4.6-3.4,8.1-11.8,11.3-20.5l42.4-115.9
			c0.3-0.9,1.2-1.5,2.1-1.5h33.4c1,0,1.8,0.6,2.1,1.5l40.1,115.8c4.4,11.8,7.2,17.2,12.6,20.4c1.1,0.6,1.4,2,0.8,3.1
			c-0.4,0.7-1.1,1.1-1.9,1.1L1588.3-2318.2z M1536.5-2381.8l-2.9,8.4l41.9,0l-2.9-8.4l-14.7-42.3h-6.1c-0.1,0-0.3,0-0.3,0
			L1536.5-2381.8"/>
		<path id="パス_1714_00000093142164656486353540000017314077502744457912_" class="st0" d="M2328.5-2315.9
			c-14.6,0-28.7-2.7-39.7-7.7c-0.8-0.4-1.3-1.2-1.3-2v-36.1c0-1,0.7-2,1.8-2.2c0.2,0,0.3-0.1,0.5-0.1c0.9,0,1.7,0.5,2,1.3
			c5.5,11.8,13.8,21.4,23.5,26.9c0.7,0.4,1.3,0.8,2,1.1l0.3,0.2c0.5,0.2,1,0.5,1.5,0.7l0.3,0.2c0.3,0.1,0.6,0.3,0.9,0.4
			c4.2,1.6,8.6,2.4,13.1,2.4c12.6,0,19.8-5.5,19.8-15.1c0-11.7-13.5-18.3-27.8-25.2c-19-9.2-40.6-19.6-40.6-44.5
			c0-30.5,27.6-44.4,53.3-44.4c14,0,26.3,3.3,35.5,6.1c0.9,0.3,1.6,1.2,1.6,2.1v32c0,1.1-0.7,2-1.8,2.2c-0.2,0-0.3,0.1-0.5,0.1
			c-0.9,0-1.7-0.5-2-1.3c-2.2-4.9-5.1-9.6-8.5-13.8c-1.3-1.4-2.7-2.8-4.2-3.9l-0.8-0.6c-4.5-3.3-9.5-5.7-14.8-7.2
			c-1.8-0.5-3.2-0.8-3.5-0.8c-0.4-0.1-0.6-0.1-0.6-0.1c-0.1,0-0.2,0-0.3,0c-1.4-0.2-2.9-0.3-4.3-0.3c-10.4,0-20.9,4.7-20.9,15.1
			c0,11.5,13.5,17.1,27.8,23c19.2,7.9,43.2,17.8,43.2,45.4C2384-2330.2,2356.1-2315.9,2328.5-2315.9"/>
		<path id="パス_1715_00000090266981003953600320000009000791122305556623_" class="st0" d="M2718.8-2315.9
			c-14.6,0-28.7-2.7-39.7-7.7c-0.8-0.4-1.3-1.2-1.3-2v-36.1c0-1,0.7-2,1.8-2.2c0.2,0,0.3-0.1,0.5-0.1c0.9,0,1.7,0.5,2,1.3
			c5.5,11.8,13.8,21.4,23.5,26.9c0.7,0.4,1.3,0.8,2,1.1l0.3,0.2c0.5,0.2,1,0.5,1.5,0.7l0.3,0.1c0.3,0.1,0.6,0.3,1,0.4
			c4.2,1.6,8.6,2.4,13.1,2.4c12.6,0,19.8-5.5,19.8-15.1c0-11.7-13.5-18.3-27.8-25.2c-19-9.2-40.6-19.6-40.6-44.5
			c0-30.5,27.6-44.4,53.3-44.4c14,0,26.3,3.3,35.5,6.1c0.9,0.3,1.6,1.2,1.6,2.1v32c0,1.1-0.7,2-1.8,2.2c-0.2,0-0.3,0.1-0.5,0.1
			c-0.9,0-1.7-0.5-2-1.3c-2.2-4.9-5.1-9.6-8.5-13.8c-1.3-1.4-2.7-2.8-4.2-3.9l-0.8-0.6c-4.5-3.3-9.5-5.7-14.8-7.2
			c-1.8-0.5-3.1-0.8-3.5-0.8c-0.4-0.1-0.6-0.1-0.6-0.1c-0.1,0-0.2,0-0.3,0c-1.4-0.2-2.9-0.3-4.3-0.3c-10.4,0-20.9,4.7-20.9,15.1
			c0,11.5,13.5,17.1,27.8,23c19.2,7.9,43.2,17.8,43.2,45.4C2774.3-2330.2,2746.4-2315.9,2718.8-2315.9"/>
		<path id="パス_1716_00000114073642695555462710000015050391280509689511_" class="st0" d="M2407.9-2318.2c-1.2,0-2.2-1-2.2-2.2
			c0-0.8,0.5-1.6,1.2-2c9.3-4.6,14.1-11.3,14.5-20.3v-92.8c-0.5-9-5.2-15.7-14.5-20.3c-1.1-0.5-1.6-1.9-1-3c0.4-0.8,1.2-1.2,2-1.2
			h105c1.2,0,2.2,1,2.2,2.2v25.4c0,1-0.7,1.9-1.7,2.2c-0.2,0-0.3,0.1-0.5,0.1c-0.8,0-1.6-0.5-2-1.2c-4.6-9.3-11.2-14-20.2-14.5
			h-28.7c-6.9,0.4-7.9,3.9-8,6.5c0,0.1,0,0.2-0.1,0.4v43.2h27.2c6.7-0.4,11.8-3.7,15.5-10.2c0.4-0.7,1.1-1.1,1.9-1.1
			c0.2,0,0.4,0,0.6,0.1c1,0.3,1.7,1.1,1.7,2.2v30.5c0,1.2-1,2.2-2.2,2.2c-0.8,0-1.5-0.4-1.9-1.1c-3.7-6.5-8.7-9.8-15.5-10.2H2454
			v44.4c0,0.1,0,0.2,0.1,0.4c0.2,2.6,1.1,6.1,8,6.5h28.7c8.9-0.5,15.6-5.3,20.2-14.5c0.4-0.8,1.2-1.2,2-1.2c0.2,0,0.3,0,0.5,0.1
			c1,0.2,1.7,1.1,1.7,2.2v25.4c0,1.2-1,2.2-2.2,2.2L2407.9-2318.2z"/>
		<path id="パス_1717_00000133525052985461872970000015613581764713302160_" class="st0" d="M2540.2-2318.2c-1.2,0-2.2-1-2.2-2.2
			c0-0.8,0.5-1.6,1.2-2c9.3-4.6,14.1-11.3,14.5-20.3v-92.8c-0.5-9-5.2-15.7-14.5-20.3c-1.1-0.5-1.6-1.9-1-3c0.4-0.8,1.2-1.2,2-1.2
			h105c1.2,0,2.2,1,2.2,2.2v25.4c0,1-0.7,1.9-1.7,2.2c-0.2,0-0.3,0.1-0.5,0.1c-0.8,0-1.6-0.5-2-1.2c-4.6-9.3-11.2-14-20.2-14.5
			h-28.7c-6.9,0.4-7.9,3.9-8,6.5c0,0.1,0,0.2-0.1,0.4v43.2h27.2c6.7-0.4,11.8-3.7,15.5-10.2c0.4-0.7,1.1-1.1,1.9-1.1
			c0.2,0,0.4,0,0.6,0.1c1,0.3,1.7,1.1,1.7,2.2v30.5c0,1.2-1,2.2-2.2,2.2c-0.8,0-1.5-0.4-1.9-1.1c-3.7-6.5-8.7-9.8-15.5-10.2h-27.2
			v44.4c0,0.1,0,0.2,0.1,0.4c0.2,2.6,1.1,6.1,8,6.5h28.7c8.9-0.5,15.6-5.3,20.2-14.5c0.4-0.8,1.2-1.2,2-1.2c0.2,0,0.3,0,0.5,0.1
			c1,0.2,1.7,1.1,1.7,2.2v25.4c0,1.2-1,2.2-2.2,2.2L2540.2-2318.2z"/>
	</g>
</g>
</svg>
